v -25.00 -575.00 -25.00
v -25.00 -575.00 25.00
v -25.00 575.00 -25.00
v -25.00 575.00 25.00
v 25.00 -575.00 -25.00
v 25.00 -575.00 25.00
v 25.00 575.00 -25.00
v 25.00 575.00 25.00
v -2.50 -583.00 -70.00
v -2.50 -583.00 290.00
v -2.50 -273.00 -70.00
v -2.50 -273.00 290.00
v 2.50 -583.00 -70.00
v 2.50 -583.00 290.00
v 2.50 -273.00 -70.00
v 2.50 -273.00 290.00
v -2.50 273.00 -70.00
v -2.50 273.00 290.00
v -2.50 583.00 -70.00
v -2.50 583.00 290.00
v 2.50 273.00 -70.00
v 2.50 273.00 290.00
v 2.50 583.00 -70.00
v 2.50 583.00 290.00
v -90.00 -80.00 -33.00
v -90.00 -80.00 -25.00
v -90.00 80.00 -33.00
v -90.00 80.00 -25.00
v 90.00 -80.00 -33.00
v 90.00 -80.00 -25.00
v 90.00 80.00 -33.00
v 90.00 80.00 -25.00
v -52.50 -75.00 25.00
v -52.50 -75.00 33.00
v -52.50 75.00 25.00
v -52.50 75.00 33.00
v 52.50 -75.00 25.00
v 52.50 -75.00 33.00
v 52.50 75.00 25.00
v 52.50 75.00 33.00
v -25.00 -31.00 -91.00
v -25.00 -31.00 -33.00
v -25.00 31.00 -91.00
v -25.00 31.00 -33.00
v 95.00 -31.00 -91.00
v 95.00 -31.00 -33.00
v 95.00 31.00 -91.00
v 95.00 31.00 -33.00
v 94.00 -33.00 -93.00
v 94.00 -33.00 -31.00
v 94.00 33.00 -93.00
v 94.00 33.00 -31.00
v 102.00 -33.00 -93.00
v 102.00 -33.00 -31.00
v 102.00 33.00 -93.00
v 102.00 33.00 -31.00
v 70.00 -40.00 -62.00
v 70.00 40.00 -62.00
v 68.66 -40.00 -67.00
v 68.66 40.00 -67.00
v 65.00 -40.00 -70.66
v 65.00 40.00 -70.66
v 60.00 -40.00 -72.00
v 60.00 40.00 -72.00
v 55.00 -40.00 -70.66
v 55.00 40.00 -70.66
v 51.34 -40.00 -67.00
v 51.34 40.00 -67.00
v 50.00 -40.00 -62.00
v 50.00 40.00 -62.00
v 51.34 -40.00 -57.00
v 51.34 40.00 -57.00
v 55.00 -40.00 -53.34
v 55.00 40.00 -53.34
v 60.00 -40.00 -52.00
v 60.00 40.00 -52.00
v 65.00 -40.00 -53.34
v 65.00 40.00 -53.34
v 68.66 -40.00 -57.00
v 68.66 40.00 -57.00
v 60.00 -40.00 -62.00
v 60.00 40.00 -62.00
o barra_transversal
f 1 3 7
f 1 7 5
f 2 6 8
f 2 8 4
f 1 5 6
f 1 6 2
f 3 4 8
f 3 8 7
f 1 2 4
f 1 4 3
f 5 7 8
f 5 8 6
o alas_laterales
f 9 11 15
f 9 15 13
f 10 14 16
f 10 16 12
f 9 13 14
f 9 14 10
f 11 12 16
f 11 16 15
f 9 10 12
f 9 12 11
f 13 15 16
f 13 16 14
f 17 19 23
f 17 23 21
f 18 22 24
f 18 24 20
f 17 21 22
f 17 22 18
f 19 20 24
f 19 24 23
f 17 18 20
f 17 20 19
f 21 23 24
f 21 24 22
o placas_receptor
f 25 27 31
f 25 31 29
f 26 30 32
f 26 32 28
f 25 29 30
f 25 30 26
f 27 28 32
f 27 32 31
f 25 26 28
f 25 28 27
f 29 31 32
f 29 32 30
f 33 35 39
f 33 39 37
f 34 38 40
f 34 40 36
f 33 37 38
f 33 38 34
f 35 36 40
f 35 40 39
f 33 34 36
f 33 36 35
f 37 39 40
f 37 40 38
o receptor_hembra
f 41 43 47
f 41 47 45
f 42 46 48
f 42 48 44
f 41 45 46
f 41 46 42
f 43 44 48
f 43 48 47
f 41 42 44
f 41 44 43
f 45 47 48
f 45 48 46
f 49 51 55
f 49 55 53
f 50 54 56
f 50 56 52
f 49 53 54
f 49 54 50
f 51 52 56
f 51 56 55
f 49 50 52
f 49 52 51
f 53 55 56
f 53 56 54
o perno_seguro
f 57 58 60
f 57 60 59
f 59 60 62
f 59 62 61
f 61 62 64
f 61 64 63
f 63 64 66
f 63 66 65
f 65 66 68
f 65 68 67
f 67 68 70
f 67 70 69
f 69 70 72
f 69 72 71
f 71 72 74
f 71 74 73
f 73 74 76
f 73 76 75
f 75 76 78
f 75 78 77
f 77 78 80
f 77 80 79
f 79 80 58
f 79 58 57
f 81 59 57
f 82 58 60
f 81 61 59
f 82 60 62
f 81 63 61
f 82 62 64
f 81 65 63
f 82 64 66
f 81 67 65
f 82 66 68
f 81 69 67
f 82 68 70
f 81 71 69
f 82 70 72
f 81 73 71
f 82 72 74
f 81 75 73
f 82 74 76
f 81 77 75
f 82 76 78
f 81 79 77
f 82 78 80
f 81 57 79
f 82 80 58
