v -170.50 -60.00 312.50
v -170.50 -60.00 487.50
v -170.50 60.00 312.50
v -170.50 60.00 487.50
v -165.50 -60.00 312.50
v -165.50 -60.00 487.50
v -165.50 60.00 312.50
v -165.50 60.00 487.50
v -170.50 -60.00 487.50
v -170.50 -60.00 492.50
v -170.50 60.00 487.50
v -170.50 60.00 492.50
v -95.50 -60.00 487.50
v -95.50 -60.00 492.50
v -95.50 60.00 487.50
v -95.50 60.00 492.50
v -165.00 -25.00 355.00
v -165.00 -25.00 405.00
v -165.00 25.00 355.00
v -165.00 25.00 405.00
v 165.00 -25.00 355.00
v 165.00 -25.00 405.00
v 165.00 25.00 355.00
v 165.00 25.00 405.00
v 25.00 -20.00 25.00
v 25.00 -20.00 355.00
v 25.00 20.00 25.00
v 25.00 20.00 355.00
v 65.00 -20.00 25.00
v 65.00 -20.00 355.00
v 65.00 20.00 25.00
v 65.00 20.00 355.00
v -35.00 -25.00 9.50
v -35.00 -25.00 14.50
v -35.00 25.00 9.50
v -35.00 25.00 14.50
v 125.00 -25.00 9.50
v 125.00 -25.00 14.50
v 125.00 25.00 9.50
v 125.00 25.00 14.50
v 167.00 -67.50 380.00
v 171.00 -67.50 380.00
v 167.00 -66.20 366.83
v 171.00 -66.20 366.83
v 167.00 -62.36 354.17
v 171.00 -62.36 354.17
v 167.00 -56.12 342.50
v 171.00 -56.12 342.50
v 167.00 -47.73 332.27
v 171.00 -47.73 332.27
v 167.00 -37.50 323.88
v 171.00 -37.50 323.88
v 167.00 -25.83 317.64
v 171.00 -25.83 317.64
v 167.00 -13.17 313.80
v 171.00 -13.17 313.80
v 167.00 -0.00 312.50
v 171.00 -0.00 312.50
v 167.00 13.17 313.80
v 171.00 13.17 313.80
v 167.00 25.83 317.64
v 171.00 25.83 317.64
v 167.00 37.50 323.88
v 171.00 37.50 323.88
v 167.00 47.73 332.27
v 171.00 47.73 332.27
v 167.00 56.12 342.50
v 171.00 56.12 342.50
v 167.00 62.36 354.17
v 171.00 62.36 354.17
v 167.00 66.20 366.83
v 171.00 66.20 366.83
v 167.00 67.50 380.00
v 171.00 67.50 380.00
v 167.00 66.20 393.17
v 171.00 66.20 393.17
v 167.00 62.36 405.83
v 171.00 62.36 405.83
v 167.00 56.12 417.50
v 171.00 56.12 417.50
v 167.00 47.73 427.73
v 171.00 47.73 427.73
v 167.00 37.50 436.12
v 171.00 37.50 436.12
v 167.00 25.83 442.36
v 171.00 25.83 442.36
v 167.00 13.17 446.20
v 171.00 13.17 446.20
v 167.00 0.00 447.50
v 171.00 0.00 447.50
v 167.00 -13.17 446.20
v 171.00 -13.17 446.20
v 167.00 -25.83 442.36
v 171.00 -25.83 442.36
v 167.00 -37.50 436.12
v 171.00 -37.50 436.12
v 167.00 -47.73 427.73
v 171.00 -47.73 427.73
v 167.00 -56.12 417.50
v 171.00 -56.12 417.50
v 167.00 -62.36 405.83
v 171.00 -62.36 405.83
v 167.00 -66.20 393.17
v 171.00 -66.20 393.17
v 167.00 0.00 380.00
v 171.00 0.00 380.00
v 171.00 -11.00 380.00
v 300.00 -11.00 380.00
v 171.00 -9.53 374.50
v 300.00 -9.53 374.50
v 171.00 -5.50 370.47
v 300.00 -5.50 370.47
v 171.00 -0.00 369.00
v 300.00 -0.00 369.00
v 171.00 5.50 370.47
v 300.00 5.50 370.47
v 171.00 9.53 374.50
v 300.00 9.53 374.50
v 171.00 11.00 380.00
v 300.00 11.00 380.00
v 171.00 9.53 385.50
v 300.00 9.53 385.50
v 171.00 5.50 389.53
v 300.00 5.50 389.53
v 171.00 0.00 391.00
v 300.00 0.00 391.00
v 171.00 -5.50 389.53
v 300.00 -5.50 389.53
v 171.00 -9.53 385.50
v 300.00 -9.53 385.50
v 171.00 0.00 380.00
v 300.00 0.00 380.00
v 303.00 -45.00 369.00
v 303.00 -45.00 391.00
v 303.00 45.00 369.00
v 303.00 45.00 391.00
v 317.00 -45.00 369.00
v 317.00 -45.00 391.00
v 317.00 45.00 369.00
v 317.00 45.00 391.00
v 262.00 365.00 380.00
v 307.56 354.60 380.00
v 344.09 325.47 380.00
v 364.37 283.36 380.00
v 364.37 236.64 380.00
v 344.09 194.53 380.00
v 307.56 165.40 380.00
v 262.00 155.00 380.00
v 216.44 165.40 380.00
v 179.91 194.53 380.00
v 159.63 236.64 380.00
v 159.63 283.36 380.00
v 179.91 325.47 380.00
v 216.44 354.60 380.00
v 262.00 359.45 443.38
v 307.56 349.21 441.58
v 344.09 320.52 436.52
v 364.37 279.06 429.21
v 364.37 233.04 421.09
v 344.09 191.58 413.78
v 307.56 162.89 408.72
v 262.00 152.65 406.92
v 216.44 162.89 408.72
v 179.91 191.58 413.78
v 159.63 233.04 421.09
v 159.63 279.06 429.21
v 179.91 320.52 436.52
v 216.44 349.21 441.58
v 262.00 342.99 504.84
v 307.56 333.22 501.28
v 344.09 305.84 491.32
v 364.37 266.28 476.92
v 364.37 222.36 460.93
v 344.09 182.80 446.53
v 307.56 155.42 436.57
v 262.00 145.65 433.01
v 216.44 155.42 436.57
v 179.91 182.80 446.53
v 159.63 222.36 460.93
v 159.63 266.28 476.92
v 179.91 305.84 491.32
v 216.44 333.22 501.28
v 262.00 316.10 562.50
v 307.56 307.09 557.30
v 344.09 281.86 542.73
v 364.37 245.40 521.68
v 364.37 204.93 498.32
v 344.09 168.47 477.27
v 307.56 143.24 462.70
v 262.00 134.23 457.50
v 216.44 143.24 462.70
v 179.91 168.47 477.27
v 159.63 204.93 498.32
v 159.63 245.40 521.68
v 179.91 281.86 542.73
v 216.44 307.09 557.30
v 262.00 279.61 614.62
v 307.56 271.64 607.93
v 344.09 249.32 589.21
v 364.37 217.07 562.14
v 364.37 181.27 532.11
v 344.09 149.02 505.04
v 307.56 126.70 486.32
v 262.00 118.74 479.63
v 216.44 126.70 486.32
v 179.91 149.02 505.04
v 159.63 181.27 532.11
v 159.63 217.07 562.14
v 179.91 249.32 589.21
v 216.44 271.64 607.93
v 262.00 234.62 659.61
v 307.56 227.93 651.64
v 344.09 209.21 629.32
v 364.37 182.14 597.07
v 364.37 152.11 561.27
v 344.09 125.04 529.02
v 307.56 106.32 506.70
v 262.00 99.63 498.74
v 216.44 106.32 506.70
v 179.91 125.04 529.02
v 159.63 152.11 561.27
v 159.63 182.14 597.07
v 179.91 209.21 629.32
v 216.44 227.93 651.64
v 262.00 182.50 696.10
v 307.56 177.30 687.09
v 344.09 162.73 661.86
v 364.37 141.68 625.40
v 364.37 118.32 584.93
v 344.09 97.27 548.47
v 307.56 82.70 523.24
v 262.00 77.50 514.23
v 216.44 82.70 523.24
v 179.91 97.27 548.47
v 159.63 118.32 584.93
v 159.63 141.68 625.40
v 179.91 162.73 661.86
v 216.44 177.30 687.09
v 262.00 124.84 722.99
v 307.56 121.28 713.22
v 344.09 111.32 685.84
v 364.37 96.92 646.28
v 364.37 80.93 602.36
v 344.09 66.53 562.80
v 307.56 56.57 535.42
v 262.00 53.01 525.65
v 216.44 56.57 535.42
v 179.91 66.53 562.80
v 159.63 80.93 602.36
v 159.63 96.92 646.28
v 179.91 111.32 685.84
v 216.44 121.28 713.22
v 262.00 63.38 739.45
v 307.56 61.58 729.21
v 344.09 56.52 700.52
v 364.37 49.21 659.06
v 364.37 41.09 613.04
v 344.09 33.78 571.58
v 307.56 28.72 542.89
v 262.00 26.92 532.65
v 216.44 28.72 542.89
v 179.91 33.78 571.58
v 159.63 41.09 613.04
v 159.63 49.21 659.06
v 179.91 56.52 700.52
v 216.44 61.58 729.21
v 262.00 0.00 745.00
v 307.56 0.00 734.60
v 344.09 0.00 705.47
v 364.37 0.00 663.36
v 364.37 0.00 616.64
v 344.09 0.00 574.53
v 307.56 0.00 545.40
v 262.00 0.00 535.00
v 216.44 0.00 545.40
v 179.91 0.00 574.53
v 159.63 0.00 616.64
v 159.63 0.00 663.36
v 179.91 0.00 705.47
v 216.44 0.00 734.60
v 262.00 -63.38 739.45
v 307.56 -61.58 729.21
v 344.09 -56.52 700.52
v 364.37 -49.21 659.06
v 364.37 -41.09 613.04
v 344.09 -33.78 571.58
v 307.56 -28.72 542.89
v 262.00 -26.92 532.65
v 216.44 -28.72 542.89
v 179.91 -33.78 571.58
v 159.63 -41.09 613.04
v 159.63 -49.21 659.06
v 179.91 -56.52 700.52
v 216.44 -61.58 729.21
v 262.00 -124.84 722.99
v 307.56 -121.28 713.22
v 344.09 -111.32 685.84
v 364.37 -96.92 646.28
v 364.37 -80.93 602.36
v 344.09 -66.53 562.80
v 307.56 -56.57 535.42
v 262.00 -53.01 525.65
v 216.44 -56.57 535.42
v 179.91 -66.53 562.80
v 159.63 -80.93 602.36
v 159.63 -96.92 646.28
v 179.91 -111.32 685.84
v 216.44 -121.28 713.22
v 262.00 -182.50 696.10
v 307.56 -177.30 687.09
v 344.09 -162.73 661.86
v 364.37 -141.68 625.40
v 364.37 -118.32 584.93
v 344.09 -97.27 548.47
v 307.56 -82.70 523.24
v 262.00 -77.50 514.23
v 216.44 -82.70 523.24
v 179.91 -97.27 548.47
v 159.63 -118.32 584.93
v 159.63 -141.68 625.40
v 179.91 -162.73 661.86
v 216.44 -177.30 687.09
v 262.00 -234.62 659.61
v 307.56 -227.93 651.64
v 344.09 -209.21 629.32
v 364.37 -182.14 597.07
v 364.37 -152.11 561.27
v 344.09 -125.04 529.02
v 307.56 -106.32 506.70
v 262.00 -99.63 498.74
v 216.44 -106.32 506.70
v 179.91 -125.04 529.02
v 159.63 -152.11 561.27
v 159.63 -182.14 597.07
v 179.91 -209.21 629.32
v 216.44 -227.93 651.64
v 262.00 -279.61 614.62
v 307.56 -271.64 607.93
v 344.09 -249.32 589.21
v 364.37 -217.07 562.14
v 364.37 -181.27 532.11
v 344.09 -149.02 505.04
v 307.56 -126.70 486.32
v 262.00 -118.74 479.63
v 216.44 -126.70 486.32
v 179.91 -149.02 505.04
v 159.63 -181.27 532.11
v 159.63 -217.07 562.14
v 179.91 -249.32 589.21
v 216.44 -271.64 607.93
v 262.00 -316.10 562.50
v 307.56 -307.09 557.30
v 344.09 -281.86 542.73
v 364.37 -245.40 521.68
v 364.37 -204.93 498.32
v 344.09 -168.47 477.27
v 307.56 -143.24 462.70
v 262.00 -134.23 457.50
v 216.44 -143.24 462.70
v 179.91 -168.47 477.27
v 159.63 -204.93 498.32
v 159.63 -245.40 521.68
v 179.91 -281.86 542.73
v 216.44 -307.09 557.30
v 262.00 -342.99 504.84
v 307.56 -333.22 501.28
v 344.09 -305.84 491.32
v 364.37 -266.28 476.92
v 364.37 -222.36 460.93
v 344.09 -182.80 446.53
v 307.56 -155.42 436.57
v 262.00 -145.65 433.01
v 216.44 -155.42 436.57
v 179.91 -182.80 446.53
v 159.63 -222.36 460.93
v 159.63 -266.28 476.92
v 179.91 -305.84 491.32
v 216.44 -333.22 501.28
v 262.00 -359.45 443.38
v 307.56 -349.21 441.58
v 344.09 -320.52 436.52
v 364.37 -279.06 429.21
v 364.37 -233.04 421.09
v 344.09 -191.58 413.78
v 307.56 -162.89 408.72
v 262.00 -152.65 406.92
v 216.44 -162.89 408.72
v 179.91 -191.58 413.78
v 159.63 -233.04 421.09
v 159.63 -279.06 429.21
v 179.91 -320.52 436.52
v 216.44 -349.21 441.58
v 262.00 -365.00 380.00
v 307.56 -354.60 380.00
v 344.09 -325.47 380.00
v 364.37 -283.36 380.00
v 364.37 -236.64 380.00
v 344.09 -194.53 380.00
v 307.56 -165.40 380.00
v 262.00 -155.00 380.00
v 216.44 -165.40 380.00
v 179.91 -194.53 380.00
v 159.63 -236.64 380.00
v 159.63 -283.36 380.00
v 179.91 -325.47 380.00
v 216.44 -354.60 380.00
v 262.00 -359.45 316.62
v 307.56 -349.21 318.42
v 344.09 -320.52 323.48
v 364.37 -279.06 330.79
v 364.37 -233.04 338.91
v 344.09 -191.58 346.22
v 307.56 -162.89 351.28
v 262.00 -152.65 353.08
v 216.44 -162.89 351.28
v 179.91 -191.58 346.22
v 159.63 -233.04 338.91
v 159.63 -279.06 330.79
v 179.91 -320.52 323.48
v 216.44 -349.21 318.42
v 262.00 -342.99 255.16
v 307.56 -333.22 258.72
v 344.09 -305.84 268.68
v 364.37 -266.28 283.08
v 364.37 -222.36 299.07
v 344.09 -182.80 313.47
v 307.56 -155.42 323.43
v 262.00 -145.65 326.99
v 216.44 -155.42 323.43
v 179.91 -182.80 313.47
v 159.63 -222.36 299.07
v 159.63 -266.28 283.08
v 179.91 -305.84 268.68
v 216.44 -333.22 258.72
v 262.00 -316.10 197.50
v 307.56 -307.09 202.70
v 344.09 -281.86 217.27
v 364.37 -245.40 238.32
v 364.37 -204.93 261.68
v 344.09 -168.47 282.73
v 307.56 -143.24 297.30
v 262.00 -134.23 302.50
v 216.44 -143.24 297.30
v 179.91 -168.47 282.73
v 159.63 -204.93 261.68
v 159.63 -245.40 238.32
v 179.91 -281.86 217.27
v 216.44 -307.09 202.70
v 262.00 -279.61 145.38
v 307.56 -271.64 152.07
v 344.09 -249.32 170.79
v 364.37 -217.07 197.86
v 364.37 -181.27 227.89
v 344.09 -149.02 254.96
v 307.56 -126.70 273.68
v 262.00 -118.74 280.37
v 216.44 -126.70 273.68
v 179.91 -149.02 254.96
v 159.63 -181.27 227.89
v 159.63 -217.07 197.86
v 179.91 -249.32 170.79
v 216.44 -271.64 152.07
v 262.00 -234.62 100.39
v 307.56 -227.93 108.36
v 344.09 -209.21 130.68
v 364.37 -182.14 162.93
v 364.37 -152.11 198.73
v 344.09 -125.04 230.98
v 307.56 -106.32 253.30
v 262.00 -99.63 261.26
v 216.44 -106.32 253.30
v 179.91 -125.04 230.98
v 159.63 -152.11 198.73
v 159.63 -182.14 162.93
v 179.91 -209.21 130.68
v 216.44 -227.93 108.36
v 262.00 -182.50 63.90
v 307.56 -177.30 72.91
v 344.09 -162.73 98.14
v 364.37 -141.68 134.60
v 364.37 -118.32 175.07
v 344.09 -97.27 211.53
v 307.56 -82.70 236.76
v 262.00 -77.50 245.77
v 216.44 -82.70 236.76
v 179.91 -97.27 211.53
v 159.63 -118.32 175.07
v 159.63 -141.68 134.60
v 179.91 -162.73 98.14
v 216.44 -177.30 72.91
v 262.00 -124.84 37.01
v 307.56 -121.28 46.78
v 344.09 -111.32 74.16
v 364.37 -96.92 113.72
v 364.37 -80.93 157.64
v 344.09 -66.53 197.20
v 307.56 -56.57 224.58
v 262.00 -53.01 234.35
v 216.44 -56.57 224.58
v 179.91 -66.53 197.20
v 159.63 -80.93 157.64
v 159.63 -96.92 113.72
v 179.91 -111.32 74.16
v 216.44 -121.28 46.78
v 262.00 -63.38 20.55
v 307.56 -61.58 30.79
v 344.09 -56.52 59.48
v 364.37 -49.21 100.94
v 364.37 -41.09 146.96
v 344.09 -33.78 188.42
v 307.56 -28.72 217.11
v 262.00 -26.92 227.35
v 216.44 -28.72 217.11
v 179.91 -33.78 188.42
v 159.63 -41.09 146.96
v 159.63 -49.21 100.94
v 179.91 -56.52 59.48
v 216.44 -61.58 30.79
v 262.00 -0.00 15.00
v 307.56 -0.00 25.40
v 344.09 -0.00 54.53
v 364.37 -0.00 96.64
v 364.37 -0.00 143.36
v 344.09 -0.00 185.47
v 307.56 -0.00 214.60
v 262.00 -0.00 225.00
v 216.44 -0.00 214.60
v 179.91 -0.00 185.47
v 159.63 -0.00 143.36
v 159.63 -0.00 96.64
v 179.91 -0.00 54.53
v 216.44 -0.00 25.40
v 262.00 63.38 20.55
v 307.56 61.58 30.79
v 344.09 56.52 59.48
v 364.37 49.21 100.94
v 364.37 41.09 146.96
v 344.09 33.78 188.42
v 307.56 28.72 217.11
v 262.00 26.92 227.35
v 216.44 28.72 217.11
v 179.91 33.78 188.42
v 159.63 41.09 146.96
v 159.63 49.21 100.94
v 179.91 56.52 59.48
v 216.44 61.58 30.79
v 262.00 124.84 37.01
v 307.56 121.28 46.78
v 344.09 111.32 74.16
v 364.37 96.92 113.72
v 364.37 80.93 157.64
v 344.09 66.53 197.20
v 307.56 56.57 224.58
v 262.00 53.01 234.35
v 216.44 56.57 224.58
v 179.91 66.53 197.20
v 159.63 80.93 157.64
v 159.63 96.92 113.72
v 179.91 111.32 74.16
v 216.44 121.28 46.78
v 262.00 182.50 63.90
v 307.56 177.30 72.91
v 344.09 162.73 98.14
v 364.37 141.68 134.60
v 364.37 118.32 175.07
v 344.09 97.27 211.53
v 307.56 82.70 236.76
v 262.00 77.50 245.77
v 216.44 82.70 236.76
v 179.91 97.27 211.53
v 159.63 118.32 175.07
v 159.63 141.68 134.60
v 179.91 162.73 98.14
v 216.44 177.30 72.91
v 262.00 234.62 100.39
v 307.56 227.93 108.36
v 344.09 209.21 130.68
v 364.37 182.14 162.93
v 364.37 152.11 198.73
v 344.09 125.04 230.98
v 307.56 106.32 253.30
v 262.00 99.63 261.26
v 216.44 106.32 253.30
v 179.91 125.04 230.98
v 159.63 152.11 198.73
v 159.63 182.14 162.93
v 179.91 209.21 130.68
v 216.44 227.93 108.36
v 262.00 279.61 145.38
v 307.56 271.64 152.07
v 344.09 249.32 170.79
v 364.37 217.07 197.86
v 364.37 181.27 227.89
v 344.09 149.02 254.96
v 307.56 126.70 273.68
v 262.00 118.74 280.37
v 216.44 126.70 273.68
v 179.91 149.02 254.96
v 159.63 181.27 227.89
v 159.63 217.07 197.86
v 179.91 249.32 170.79
v 216.44 271.64 152.07
v 262.00 316.10 197.50
v 307.56 307.09 202.70
v 344.09 281.86 217.27
v 364.37 245.40 238.32
v 364.37 204.93 261.68
v 344.09 168.47 282.73
v 307.56 143.24 297.30
v 262.00 134.23 302.50
v 216.44 143.24 297.30
v 179.91 168.47 282.73
v 159.63 204.93 261.68
v 159.63 245.40 238.32
v 179.91 281.86 217.27
v 216.44 307.09 202.70
v 262.00 342.99 255.16
v 307.56 333.22 258.72
v 344.09 305.84 268.68
v 364.37 266.28 283.08
v 364.37 222.36 299.07
v 344.09 182.80 313.47
v 307.56 155.42 323.43
v 262.00 145.65 326.99
v 216.44 155.42 323.43
v 179.91 182.80 313.47
v 159.63 222.36 299.07
v 159.63 266.28 283.08
v 179.91 305.84 268.68
v 216.44 333.22 258.72
v 262.00 359.45 316.62
v 307.56 349.21 318.42
v 344.09 320.52 323.48
v 364.37 279.06 330.79
v 364.37 233.04 338.91
v 344.09 191.58 346.22
v 307.56 162.89 351.28
v 262.00 152.65 353.08
v 216.44 162.89 351.28
v 179.91 191.58 346.22
v 159.63 233.04 338.91
v 159.63 279.06 330.79
v 179.91 320.52 323.48
v 216.44 349.21 318.42
v 222.10 -165.00 380.00
v 301.90 -165.00 380.00
v 222.10 -160.86 343.28
v 301.90 -160.86 343.28
v 222.10 -148.66 308.41
v 301.90 -148.66 308.41
v 222.10 -129.00 277.12
v 301.90 -129.00 277.12
v 222.10 -102.88 251.00
v 301.90 -102.88 251.00
v 222.10 -71.59 231.34
v 301.90 -71.59 231.34
v 222.10 -36.72 219.14
v 301.90 -36.72 219.14
v 222.10 -0.00 215.00
v 301.90 -0.00 215.00
v 222.10 36.72 219.14
v 301.90 36.72 219.14
v 222.10 71.59 231.34
v 301.90 71.59 231.34
v 222.10 102.88 251.00
v 301.90 102.88 251.00
v 222.10 129.00 277.12
v 301.90 129.00 277.12
v 222.10 148.66 308.41
v 301.90 148.66 308.41
v 222.10 160.86 343.28
v 301.90 160.86 343.28
v 222.10 165.00 380.00
v 301.90 165.00 380.00
v 222.10 160.86 416.72
v 301.90 160.86 416.72
v 222.10 148.66 451.59
v 301.90 148.66 451.59
v 222.10 129.00 482.88
v 301.90 129.00 482.88
v 222.10 102.88 509.00
v 301.90 102.88 509.00
v 222.10 71.59 528.66
v 301.90 71.59 528.66
v 222.10 36.72 540.86
v 301.90 36.72 540.86
v 222.10 0.00 545.00
v 301.90 0.00 545.00
v 222.10 -36.72 540.86
v 301.90 -36.72 540.86
v 222.10 -71.59 528.66
v 301.90 -71.59 528.66
v 222.10 -102.88 509.00
v 301.90 -102.88 509.00
v 222.10 -129.00 482.88
v 301.90 -129.00 482.88
v 222.10 -148.66 451.59
v 301.90 -148.66 451.59
v 222.10 -160.86 416.72
v 301.90 -160.86 416.72
v 222.10 0.00 380.00
v 301.90 0.00 380.00
o placa_anclaje_ajustable
f 1 3 7
f 1 7 5
f 2 6 8
f 2 8 4
f 1 5 6
f 1 6 2
f 3 4 8
f 3 8 7
f 1 2 4
f 1 4 3
f 5 7 8
f 5 8 6
f 9 11 15
f 9 15 13
f 10 14 16
f 10 16 12
f 9 13 14
f 9 14 10
f 11 12 16
f 11 16 15
f 9 10 12
f 9 12 11
f 13 15 16
f 13 16 14
o brazo
f 17 19 23
f 17 23 21
f 18 22 24
f 18 24 20
f 17 21 22
f 17 22 18
f 19 20 24
f 19 24 23
f 17 18 20
f 17 20 19
f 21 23 24
f 21 24 22
o poste
f 25 27 31
f 25 31 29
f 26 30 32
f 26 32 28
f 25 29 30
f 25 30 26
f 27 28 32
f 27 32 31
f 25 26 28
f 25 28 27
f 29 31 32
f 29 32 30
o placa_anclaje_directo
f 33 35 39
f 33 39 37
f 34 38 40
f 34 40 36
f 33 37 38
f 33 38 34
f 35 36 40
f 35 40 39
f 33 34 36
f 33 36 35
f 37 39 40
f 37 40 38
o disco
f 41 42 44
f 41 44 43
f 43 44 46
f 43 46 45
f 45 46 48
f 45 48 47
f 47 48 50
f 47 50 49
f 49 50 52
f 49 52 51
f 51 52 54
f 51 54 53
f 53 54 56
f 53 56 55
f 55 56 58
f 55 58 57
f 57 58 60
f 57 60 59
f 59 60 62
f 59 62 61
f 61 62 64
f 61 64 63
f 63 64 66
f 63 66 65
f 65 66 68
f 65 68 67
f 67 68 70
f 67 70 69
f 69 70 72
f 69 72 71
f 71 72 74
f 71 74 73
f 73 74 76
f 73 76 75
f 75 76 78
f 75 78 77
f 77 78 80
f 77 80 79
f 79 80 82
f 79 82 81
f 81 82 84
f 81 84 83
f 83 84 86
f 83 86 85
f 85 86 88
f 85 88 87
f 87 88 90
f 87 90 89
f 89 90 92
f 89 92 91
f 91 92 94
f 91 94 93
f 93 94 96
f 93 96 95
f 95 96 98
f 95 98 97
f 97 98 100
f 97 100 99
f 99 100 102
f 99 102 101
f 101 102 104
f 101 104 103
f 103 104 42
f 103 42 41
f 105 43 41
f 106 42 44
f 105 45 43
f 106 44 46
f 105 47 45
f 106 46 48
f 105 49 47
f 106 48 50
f 105 51 49
f 106 50 52
f 105 53 51
f 106 52 54
f 105 55 53
f 106 54 56
f 105 57 55
f 106 56 58
f 105 59 57
f 106 58 60
f 105 61 59
f 106 60 62
f 105 63 61
f 106 62 64
f 105 65 63
f 106 64 66
f 105 67 65
f 106 66 68
f 105 69 67
f 106 68 70
f 105 71 69
f 106 70 72
f 105 73 71
f 106 72 74
f 105 75 73
f 106 74 76
f 105 77 75
f 106 76 78
f 105 79 77
f 106 78 80
f 105 81 79
f 106 80 82
f 105 83 81
f 106 82 84
f 105 85 83
f 106 84 86
f 105 87 85
f 106 86 88
f 105 89 87
f 106 88 90
f 105 91 89
f 106 90 92
f 105 93 91
f 106 92 94
f 105 95 93
f 106 94 96
f 105 97 95
f 106 96 98
f 105 99 97
f 106 98 100
f 105 101 99
f 106 100 102
f 105 103 101
f 106 102 104
f 105 41 103
f 106 104 42
o vastago
f 107 108 110
f 107 110 109
f 109 110 112
f 109 112 111
f 111 112 114
f 111 114 113
f 113 114 116
f 113 116 115
f 115 116 118
f 115 118 117
f 117 118 120
f 117 120 119
f 119 120 122
f 119 122 121
f 121 122 124
f 121 124 123
f 123 124 126
f 123 126 125
f 125 126 128
f 125 128 127
f 127 128 130
f 127 130 129
f 129 130 108
f 129 108 107
f 131 109 107
f 132 108 110
f 131 111 109
f 132 110 112
f 131 113 111
f 132 112 114
f 131 115 113
f 132 114 116
f 131 117 115
f 132 116 118
f 131 119 117
f 132 118 120
f 131 121 119
f 132 120 122
f 131 123 121
f 132 122 124
f 131 125 123
f 132 124 126
f 131 127 125
f 132 126 128
f 131 129 127
f 132 128 130
f 131 107 129
f 132 130 108
f 133 135 139
f 133 139 137
f 134 138 140
f 134 140 136
f 133 137 138
f 133 138 134
f 135 136 140
f 135 140 139
f 133 134 136
f 133 136 135
f 137 139 140
f 137 140 138
o neumatico
f 141 155 156
f 141 156 142
f 142 156 157
f 142 157 143
f 143 157 158
f 143 158 144
f 144 158 159
f 144 159 145
f 145 159 160
f 145 160 146
f 146 160 161
f 146 161 147
f 147 161 162
f 147 162 148
f 148 162 163
f 148 163 149
f 149 163 164
f 149 164 150
f 150 164 165
f 150 165 151
f 151 165 166
f 151 166 152
f 152 166 167
f 152 167 153
f 153 167 168
f 153 168 154
f 154 168 155
f 154 155 141
f 155 169 170
f 155 170 156
f 156 170 171
f 156 171 157
f 157 171 172
f 157 172 158
f 158 172 173
f 158 173 159
f 159 173 174
f 159 174 160
f 160 174 175
f 160 175 161
f 161 175 176
f 161 176 162
f 162 176 177
f 162 177 163
f 163 177 178
f 163 178 164
f 164 178 179
f 164 179 165
f 165 179 180
f 165 180 166
f 166 180 181
f 166 181 167
f 167 181 182
f 167 182 168
f 168 182 169
f 168 169 155
f 169 183 184
f 169 184 170
f 170 184 185
f 170 185 171
f 171 185 186
f 171 186 172
f 172 186 187
f 172 187 173
f 173 187 188
f 173 188 174
f 174 188 189
f 174 189 175
f 175 189 190
f 175 190 176
f 176 190 191
f 176 191 177
f 177 191 192
f 177 192 178
f 178 192 193
f 178 193 179
f 179 193 194
f 179 194 180
f 180 194 195
f 180 195 181
f 181 195 196
f 181 196 182
f 182 196 183
f 182 183 169
f 183 197 198
f 183 198 184
f 184 198 199
f 184 199 185
f 185 199 200
f 185 200 186
f 186 200 201
f 186 201 187
f 187 201 202
f 187 202 188
f 188 202 203
f 188 203 189
f 189 203 204
f 189 204 190
f 190 204 205
f 190 205 191
f 191 205 206
f 191 206 192
f 192 206 207
f 192 207 193
f 193 207 208
f 193 208 194
f 194 208 209
f 194 209 195
f 195 209 210
f 195 210 196
f 196 210 197
f 196 197 183
f 197 211 212
f 197 212 198
f 198 212 213
f 198 213 199
f 199 213 214
f 199 214 200
f 200 214 215
f 200 215 201
f 201 215 216
f 201 216 202
f 202 216 217
f 202 217 203
f 203 217 218
f 203 218 204
f 204 218 219
f 204 219 205
f 205 219 220
f 205 220 206
f 206 220 221
f 206 221 207
f 207 221 222
f 207 222 208
f 208 222 223
f 208 223 209
f 209 223 224
f 209 224 210
f 210 224 211
f 210 211 197
f 211 225 226
f 211 226 212
f 212 226 227
f 212 227 213
f 213 227 228
f 213 228 214
f 214 228 229
f 214 229 215
f 215 229 230
f 215 230 216
f 216 230 231
f 216 231 217
f 217 231 232
f 217 232 218
f 218 232 233
f 218 233 219
f 219 233 234
f 219 234 220
f 220 234 235
f 220 235 221
f 221 235 236
f 221 236 222
f 222 236 237
f 222 237 223
f 223 237 238
f 223 238 224
f 224 238 225
f 224 225 211
f 225 239 240
f 225 240 226
f 226 240 241
f 226 241 227
f 227 241 242
f 227 242 228
f 228 242 243
f 228 243 229
f 229 243 244
f 229 244 230
f 230 244 245
f 230 245 231
f 231 245 246
f 231 246 232
f 232 246 247
f 232 247 233
f 233 247 248
f 233 248 234
f 234 248 249
f 234 249 235
f 235 249 250
f 235 250 236
f 236 250 251
f 236 251 237
f 237 251 252
f 237 252 238
f 238 252 239
f 238 239 225
f 239 253 254
f 239 254 240
f 240 254 255
f 240 255 241
f 241 255 256
f 241 256 242
f 242 256 257
f 242 257 243
f 243 257 258
f 243 258 244
f 244 258 259
f 244 259 245
f 245 259 260
f 245 260 246
f 246 260 261
f 246 261 247
f 247 261 262
f 247 262 248
f 248 262 263
f 248 263 249
f 249 263 264
f 249 264 250
f 250 264 265
f 250 265 251
f 251 265 266
f 251 266 252
f 252 266 253
f 252 253 239
f 253 267 268
f 253 268 254
f 254 268 269
f 254 269 255
f 255 269 270
f 255 270 256
f 256 270 271
f 256 271 257
f 257 271 272
f 257 272 258
f 258 272 273
f 258 273 259
f 259 273 274
f 259 274 260
f 260 274 275
f 260 275 261
f 261 275 276
f 261 276 262
f 262 276 277
f 262 277 263
f 263 277 278
f 263 278 264
f 264 278 279
f 264 279 265
f 265 279 280
f 265 280 266
f 266 280 267
f 266 267 253
f 267 281 282
f 267 282 268
f 268 282 283
f 268 283 269
f 269 283 284
f 269 284 270
f 270 284 285
f 270 285 271
f 271 285 286
f 271 286 272
f 272 286 287
f 272 287 273
f 273 287 288
f 273 288 274
f 274 288 289
f 274 289 275
f 275 289 290
f 275 290 276
f 276 290 291
f 276 291 277
f 277 291 292
f 277 292 278
f 278 292 293
f 278 293 279
f 279 293 294
f 279 294 280
f 280 294 281
f 280 281 267
f 281 295 296
f 281 296 282
f 282 296 297
f 282 297 283
f 283 297 298
f 283 298 284
f 284 298 299
f 284 299 285
f 285 299 300
f 285 300 286
f 286 300 301
f 286 301 287
f 287 301 302
f 287 302 288
f 288 302 303
f 288 303 289
f 289 303 304
f 289 304 290
f 290 304 305
f 290 305 291
f 291 305 306
f 291 306 292
f 292 306 307
f 292 307 293
f 293 307 308
f 293 308 294
f 294 308 295
f 294 295 281
f 295 309 310
f 295 310 296
f 296 310 311
f 296 311 297
f 297 311 312
f 297 312 298
f 298 312 313
f 298 313 299
f 299 313 314
f 299 314 300
f 300 314 315
f 300 315 301
f 301 315 316
f 301 316 302
f 302 316 317
f 302 317 303
f 303 317 318
f 303 318 304
f 304 318 319
f 304 319 305
f 305 319 320
f 305 320 306
f 306 320 321
f 306 321 307
f 307 321 322
f 307 322 308
f 308 322 309
f 308 309 295
f 309 323 324
f 309 324 310
f 310 324 325
f 310 325 311
f 311 325 326
f 311 326 312
f 312 326 327
f 312 327 313
f 313 327 328
f 313 328 314
f 314 328 329
f 314 329 315
f 315 329 330
f 315 330 316
f 316 330 331
f 316 331 317
f 317 331 332
f 317 332 318
f 318 332 333
f 318 333 319
f 319 333 334
f 319 334 320
f 320 334 335
f 320 335 321
f 321 335 336
f 321 336 322
f 322 336 323
f 322 323 309
f 323 337 338
f 323 338 324
f 324 338 339
f 324 339 325
f 325 339 340
f 325 340 326
f 326 340 341
f 326 341 327
f 327 341 342
f 327 342 328
f 328 342 343
f 328 343 329
f 329 343 344
f 329 344 330
f 330 344 345
f 330 345 331
f 331 345 346
f 331 346 332
f 332 346 347
f 332 347 333
f 333 347 348
f 333 348 334
f 334 348 349
f 334 349 335
f 335 349 350
f 335 350 336
f 336 350 337
f 336 337 323
f 337 351 352
f 337 352 338
f 338 352 353
f 338 353 339
f 339 353 354
f 339 354 340
f 340 354 355
f 340 355 341
f 341 355 356
f 341 356 342
f 342 356 357
f 342 357 343
f 343 357 358
f 343 358 344
f 344 358 359
f 344 359 345
f 345 359 360
f 345 360 346
f 346 360 361
f 346 361 347
f 347 361 362
f 347 362 348
f 348 362 363
f 348 363 349
f 349 363 364
f 349 364 350
f 350 364 351
f 350 351 337
f 351 365 366
f 351 366 352
f 352 366 367
f 352 367 353
f 353 367 368
f 353 368 354
f 354 368 369
f 354 369 355
f 355 369 370
f 355 370 356
f 356 370 371
f 356 371 357
f 357 371 372
f 357 372 358
f 358 372 373
f 358 373 359
f 359 373 374
f 359 374 360
f 360 374 375
f 360 375 361
f 361 375 376
f 361 376 362
f 362 376 377
f 362 377 363
f 363 377 378
f 363 378 364
f 364 378 365
f 364 365 351
f 365 379 380
f 365 380 366
f 366 380 381
f 366 381 367
f 367 381 382
f 367 382 368
f 368 382 383
f 368 383 369
f 369 383 384
f 369 384 370
f 370 384 385
f 370 385 371
f 371 385 386
f 371 386 372
f 372 386 387
f 372 387 373
f 373 387 388
f 373 388 374
f 374 388 389
f 374 389 375
f 375 389 390
f 375 390 376
f 376 390 391
f 376 391 377
f 377 391 392
f 377 392 378
f 378 392 379
f 378 379 365
f 379 393 394
f 379 394 380
f 380 394 395
f 380 395 381
f 381 395 396
f 381 396 382
f 382 396 397
f 382 397 383
f 383 397 398
f 383 398 384
f 384 398 399
f 384 399 385
f 385 399 400
f 385 400 386
f 386 400 401
f 386 401 387
f 387 401 402
f 387 402 388
f 388 402 403
f 388 403 389
f 389 403 404
f 389 404 390
f 390 404 405
f 390 405 391
f 391 405 406
f 391 406 392
f 392 406 393
f 392 393 379
f 393 407 408
f 393 408 394
f 394 408 409
f 394 409 395
f 395 409 410
f 395 410 396
f 396 410 411
f 396 411 397
f 397 411 412
f 397 412 398
f 398 412 413
f 398 413 399
f 399 413 414
f 399 414 400
f 400 414 415
f 400 415 401
f 401 415 416
f 401 416 402
f 402 416 417
f 402 417 403
f 403 417 418
f 403 418 404
f 404 418 419
f 404 419 405
f 405 419 420
f 405 420 406
f 406 420 407
f 406 407 393
f 407 421 422
f 407 422 408
f 408 422 423
f 408 423 409
f 409 423 424
f 409 424 410
f 410 424 425
f 410 425 411
f 411 425 426
f 411 426 412
f 412 426 427
f 412 427 413
f 413 427 428
f 413 428 414
f 414 428 429
f 414 429 415
f 415 429 430
f 415 430 416
f 416 430 431
f 416 431 417
f 417 431 432
f 417 432 418
f 418 432 433
f 418 433 419
f 419 433 434
f 419 434 420
f 420 434 421
f 420 421 407
f 421 435 436
f 421 436 422
f 422 436 437
f 422 437 423
f 423 437 438
f 423 438 424
f 424 438 439
f 424 439 425
f 425 439 440
f 425 440 426
f 426 440 441
f 426 441 427
f 427 441 442
f 427 442 428
f 428 442 443
f 428 443 429
f 429 443 444
f 429 444 430
f 430 444 445
f 430 445 431
f 431 445 446
f 431 446 432
f 432 446 447
f 432 447 433
f 433 447 448
f 433 448 434
f 434 448 435
f 434 435 421
f 435 449 450
f 435 450 436
f 436 450 451
f 436 451 437
f 437 451 452
f 437 452 438
f 438 452 453
f 438 453 439
f 439 453 454
f 439 454 440
f 440 454 455
f 440 455 441
f 441 455 456
f 441 456 442
f 442 456 457
f 442 457 443
f 443 457 458
f 443 458 444
f 444 458 459
f 444 459 445
f 445 459 460
f 445 460 446
f 446 460 461
f 446 461 447
f 447 461 462
f 447 462 448
f 448 462 449
f 448 449 435
f 449 463 464
f 449 464 450
f 450 464 465
f 450 465 451
f 451 465 466
f 451 466 452
f 452 466 467
f 452 467 453
f 453 467 468
f 453 468 454
f 454 468 469
f 454 469 455
f 455 469 470
f 455 470 456
f 456 470 471
f 456 471 457
f 457 471 472
f 457 472 458
f 458 472 473
f 458 473 459
f 459 473 474
f 459 474 460
f 460 474 475
f 460 475 461
f 461 475 476
f 461 476 462
f 462 476 463
f 462 463 449
f 463 477 478
f 463 478 464
f 464 478 479
f 464 479 465
f 465 479 480
f 465 480 466
f 466 480 481
f 466 481 467
f 467 481 482
f 467 482 468
f 468 482 483
f 468 483 469
f 469 483 484
f 469 484 470
f 470 484 485
f 470 485 471
f 471 485 486
f 471 486 472
f 472 486 487
f 472 487 473
f 473 487 488
f 473 488 474
f 474 488 489
f 474 489 475
f 475 489 490
f 475 490 476
f 476 490 477
f 476 477 463
f 477 491 492
f 477 492 478
f 478 492 493
f 478 493 479
f 479 493 494
f 479 494 480
f 480 494 495
f 480 495 481
f 481 495 496
f 481 496 482
f 482 496 497
f 482 497 483
f 483 497 498
f 483 498 484
f 484 498 499
f 484 499 485
f 485 499 500
f 485 500 486
f 486 500 501
f 486 501 487
f 487 501 502
f 487 502 488
f 488 502 503
f 488 503 489
f 489 503 504
f 489 504 490
f 490 504 491
f 490 491 477
f 491 505 506
f 491 506 492
f 492 506 507
f 492 507 493
f 493 507 508
f 493 508 494
f 494 508 509
f 494 509 495
f 495 509 510
f 495 510 496
f 496 510 511
f 496 511 497
f 497 511 512
f 497 512 498
f 498 512 513
f 498 513 499
f 499 513 514
f 499 514 500
f 500 514 515
f 500 515 501
f 501 515 516
f 501 516 502
f 502 516 517
f 502 517 503
f 503 517 518
f 503 518 504
f 504 518 505
f 504 505 491
f 505 519 520
f 505 520 506
f 506 520 521
f 506 521 507
f 507 521 522
f 507 522 508
f 508 522 523
f 508 523 509
f 509 523 524
f 509 524 510
f 510 524 525
f 510 525 511
f 511 525 526
f 511 526 512
f 512 526 527
f 512 527 513
f 513 527 528
f 513 528 514
f 514 528 529
f 514 529 515
f 515 529 530
f 515 530 516
f 516 530 531
f 516 531 517
f 517 531 532
f 517 532 518
f 518 532 519
f 518 519 505
f 519 533 534
f 519 534 520
f 520 534 535
f 520 535 521
f 521 535 536
f 521 536 522
f 522 536 537
f 522 537 523
f 523 537 538
f 523 538 524
f 524 538 539
f 524 539 525
f 525 539 540
f 525 540 526
f 526 540 541
f 526 541 527
f 527 541 542
f 527 542 528
f 528 542 543
f 528 543 529
f 529 543 544
f 529 544 530
f 530 544 545
f 530 545 531
f 531 545 546
f 531 546 532
f 532 546 533
f 532 533 519
f 533 547 548
f 533 548 534
f 534 548 549
f 534 549 535
f 535 549 550
f 535 550 536
f 536 550 551
f 536 551 537
f 537 551 552
f 537 552 538
f 538 552 553
f 538 553 539
f 539 553 554
f 539 554 540
f 540 554 555
f 540 555 541
f 541 555 556
f 541 556 542
f 542 556 557
f 542 557 543
f 543 557 558
f 543 558 544
f 544 558 559
f 544 559 545
f 545 559 560
f 545 560 546
f 546 560 547
f 546 547 533
f 547 561 562
f 547 562 548
f 548 562 563
f 548 563 549
f 549 563 564
f 549 564 550
f 550 564 565
f 550 565 551
f 551 565 566
f 551 566 552
f 552 566 567
f 552 567 553
f 553 567 568
f 553 568 554
f 554 568 569
f 554 569 555
f 555 569 570
f 555 570 556
f 556 570 571
f 556 571 557
f 557 571 572
f 557 572 558
f 558 572 573
f 558 573 559
f 559 573 574
f 559 574 560
f 560 574 561
f 560 561 547
f 561 575 576
f 561 576 562
f 562 576 577
f 562 577 563
f 563 577 578
f 563 578 564
f 564 578 579
f 564 579 565
f 565 579 580
f 565 580 566
f 566 580 581
f 566 581 567
f 567 581 582
f 567 582 568
f 568 582 583
f 568 583 569
f 569 583 584
f 569 584 570
f 570 584 585
f 570 585 571
f 571 585 586
f 571 586 572
f 572 586 587
f 572 587 573
f 573 587 588
f 573 588 574
f 574 588 575
f 574 575 561
f 575 589 590
f 575 590 576
f 576 590 591
f 576 591 577
f 577 591 592
f 577 592 578
f 578 592 593
f 578 593 579
f 579 593 594
f 579 594 580
f 580 594 595
f 580 595 581
f 581 595 596
f 581 596 582
f 582 596 597
f 582 597 583
f 583 597 598
f 583 598 584
f 584 598 599
f 584 599 585
f 585 599 600
f 585 600 586
f 586 600 601
f 586 601 587
f 587 601 602
f 587 602 588
f 588 602 589
f 588 589 575
f 589 603 604
f 589 604 590
f 590 604 605
f 590 605 591
f 591 605 606
f 591 606 592
f 592 606 607
f 592 607 593
f 593 607 608
f 593 608 594
f 594 608 609
f 594 609 595
f 595 609 610
f 595 610 596
f 596 610 611
f 596 611 597
f 597 611 612
f 597 612 598
f 598 612 613
f 598 613 599
f 599 613 614
f 599 614 600
f 600 614 615
f 600 615 601
f 601 615 616
f 601 616 602
f 602 616 603
f 602 603 589
f 603 617 618
f 603 618 604
f 604 618 619
f 604 619 605
f 605 619 620
f 605 620 606
f 606 620 621
f 606 621 607
f 607 621 622
f 607 622 608
f 608 622 623
f 608 623 609
f 609 623 624
f 609 624 610
f 610 624 625
f 610 625 611
f 611 625 626
f 611 626 612
f 612 626 627
f 612 627 613
f 613 627 628
f 613 628 614
f 614 628 629
f 614 629 615
f 615 629 630
f 615 630 616
f 616 630 617
f 616 617 603
f 617 631 632
f 617 632 618
f 618 632 633
f 618 633 619
f 619 633 634
f 619 634 620
f 620 634 635
f 620 635 621
f 621 635 636
f 621 636 622
f 622 636 637
f 622 637 623
f 623 637 638
f 623 638 624
f 624 638 639
f 624 639 625
f 625 639 640
f 625 640 626
f 626 640 641
f 626 641 627
f 627 641 642
f 627 642 628
f 628 642 643
f 628 643 629
f 629 643 644
f 629 644 630
f 630 644 631
f 630 631 617
f 631 141 142
f 631 142 632
f 632 142 143
f 632 143 633
f 633 143 144
f 633 144 634
f 634 144 145
f 634 145 635
f 635 145 146
f 635 146 636
f 636 146 147
f 636 147 637
f 637 147 148
f 637 148 638
f 638 148 149
f 638 149 639
f 639 149 150
f 639 150 640
f 640 150 151
f 640 151 641
f 641 151 152
f 641 152 642
f 642 152 153
f 642 153 643
f 643 153 154
f 643 154 644
f 644 154 141
f 644 141 631
o llanta
f 645 646 648
f 645 648 647
f 647 648 650
f 647 650 649
f 649 650 652
f 649 652 651
f 651 652 654
f 651 654 653
f 653 654 656
f 653 656 655
f 655 656 658
f 655 658 657
f 657 658 660
f 657 660 659
f 659 660 662
f 659 662 661
f 661 662 664
f 661 664 663
f 663 664 666
f 663 666 665
f 665 666 668
f 665 668 667
f 667 668 670
f 667 670 669
f 669 670 672
f 669 672 671
f 671 672 674
f 671 674 673
f 673 674 676
f 673 676 675
f 675 676 678
f 675 678 677
f 677 678 680
f 677 680 679
f 679 680 682
f 679 682 681
f 681 682 684
f 681 684 683
f 683 684 686
f 683 686 685
f 685 686 688
f 685 688 687
f 687 688 690
f 687 690 689
f 689 690 692
f 689 692 691
f 691 692 694
f 691 694 693
f 693 694 696
f 693 696 695
f 695 696 698
f 695 698 697
f 697 698 700
f 697 700 699
f 699 700 646
f 699 646 645
f 701 647 645
f 702 646 648
f 701 649 647
f 702 648 650
f 701 651 649
f 702 650 652
f 701 653 651
f 702 652 654
f 701 655 653
f 702 654 656
f 701 657 655
f 702 656 658
f 701 659 657
f 702 658 660
f 701 661 659
f 702 660 662
f 701 663 661
f 702 662 664
f 701 665 663
f 702 664 666
f 701 667 665
f 702 666 668
f 701 669 667
f 702 668 670
f 701 671 669
f 702 670 672
f 701 673 671
f 702 672 674
f 701 675 673
f 702 674 676
f 701 677 675
f 702 676 678
f 701 679 677
f 702 678 680
f 701 681 679
f 702 680 682
f 701 683 681
f 702 682 684
f 701 685 683
f 702 684 686
f 701 687 685
f 702 686 688
f 701 689 687
f 702 688 690
f 701 691 689
f 702 690 692
f 701 693 691
f 702 692 694
f 701 695 693
f 702 694 696
f 701 697 695
f 702 696 698
f 701 699 697
f 702 698 700
f 701 645 699
f 702 700 646
