v -75.00 -50.00 0.00
v -75.00 -50.00 5.00
v -75.00 50.00 0.00
v -75.00 50.00 5.00
v 75.00 -50.00 0.00
v 75.00 -50.00 5.00
v 75.00 50.00 0.00
v 75.00 50.00 5.00
v -40.00 -20.00 2.50
v -40.00 -20.00 707.50
v -40.00 20.00 2.50
v -40.00 20.00 707.50
v 40.00 -20.00 2.50
v 40.00 -20.00 707.50
v 40.00 20.00 2.50
v 40.00 20.00 707.50
v -40.00 -100.00 600.00
v -40.00 -100.00 640.00
v -40.00 -20.00 600.00
v -40.00 -20.00 640.00
v 40.00 -100.00 600.00
v 40.00 -100.00 640.00
v 40.00 -20.00 600.00
v 40.00 -20.00 640.00
v -180.00 -60.00 615.00
v -180.00 -60.00 695.00
v -180.00 -20.00 615.00
v -180.00 -20.00 695.00
v -40.00 -60.00 615.00
v -40.00 -60.00 695.00
v -40.00 -20.00 615.00
v -40.00 -20.00 695.00
v 40.00 -60.00 615.00
v 40.00 -60.00 695.00
v 40.00 -20.00 615.00
v 40.00 -20.00 695.00
v 180.00 -60.00 615.00
v 180.00 -60.00 695.00
v 180.00 -20.00 615.00
v 180.00 -20.00 695.00
v -2.50 -98.00 362.11
v -2.50 -235.89 500.00
v -2.50 39.89 500.00
v -2.50 -98.00 637.89
v 2.50 -98.00 362.11
v 2.50 -235.89 500.00
v 2.50 39.89 500.00
v 2.50 -98.00 637.89
v -37.50 -80.00 687.50
v -37.50 -80.00 692.50
v -37.50 -40.00 687.50
v -37.50 -40.00 692.50
v 37.50 -80.00 687.50
v 37.50 -80.00 692.50
v 37.50 -40.00 687.50
v 37.50 -40.00 692.50
v -9.50 -80.00 620.00
v -9.50 -290.00 620.00
v -8.23 -80.00 615.25
v -8.23 -290.00 615.25
v -4.75 -80.00 611.77
v -4.75 -290.00 611.77
v -0.00 -80.00 610.50
v -0.00 -290.00 610.50
v 4.75 -80.00 611.77
v 4.75 -290.00 611.77
v 8.23 -80.00 615.25
v 8.23 -290.00 615.25
v 9.50 -80.00 620.00
v 9.50 -290.00 620.00
v 8.23 -80.00 624.75
v 8.23 -290.00 624.75
v 4.75 -80.00 628.23
v 4.75 -290.00 628.23
v 0.00 -80.00 629.50
v 0.00 -290.00 629.50
v -4.75 -80.00 628.23
v -4.75 -290.00 628.23
v -8.23 -80.00 624.75
v -8.23 -290.00 624.75
v 0.00 -80.00 620.00
v 0.00 -290.00 620.00
v -45.00 -307.00 609.00
v -45.00 -307.00 631.00
v -45.00 -293.00 609.00
v -45.00 -293.00 631.00
v 45.00 -307.00 609.00
v 45.00 -307.00 631.00
v 45.00 -293.00 609.00
v 45.00 -293.00 631.00
v 365.00 -212.00 620.00
v 354.60 -166.44 620.00
v 325.47 -129.91 620.00
v 283.36 -109.63 620.00
v 236.64 -109.63 620.00
v 194.53 -129.91 620.00
v 165.40 -166.44 620.00
v 155.00 -212.00 620.00
v 165.40 -257.56 620.00
v 194.53 -294.09 620.00
v 236.64 -314.37 620.00
v 283.36 -314.37 620.00
v 325.47 -294.09 620.00
v 354.60 -257.56 620.00
v 359.45 -212.00 683.38
v 349.21 -166.44 681.58
v 320.52 -129.91 676.52
v 279.06 -109.63 669.21
v 233.04 -109.63 661.09
v 191.58 -129.91 653.78
v 162.89 -166.44 648.72
v 152.65 -212.00 646.92
v 162.89 -257.56 648.72
v 191.58 -294.09 653.78
v 233.04 -314.37 661.09
v 279.06 -314.37 669.21
v 320.52 -294.09 676.52
v 349.21 -257.56 681.58
v 342.99 -212.00 744.84
v 333.22 -166.44 741.28
v 305.84 -129.91 731.32
v 266.28 -109.63 716.92
v 222.36 -109.63 700.93
v 182.80 -129.91 686.53
v 155.42 -166.44 676.57
v 145.65 -212.00 673.01
v 155.42 -257.56 676.57
v 182.80 -294.09 686.53
v 222.36 -314.37 700.93
v 266.28 -314.37 716.92
v 305.84 -294.09 731.32
v 333.22 -257.56 741.28
v 316.10 -212.00 802.50
v 307.09 -166.44 797.30
v 281.86 -129.91 782.73
v 245.40 -109.63 761.68
v 204.93 -109.63 738.32
v 168.47 -129.91 717.27
v 143.24 -166.44 702.70
v 134.23 -212.00 697.50
v 143.24 -257.56 702.70
v 168.47 -294.09 717.27
v 204.93 -314.37 738.32
v 245.40 -314.37 761.68
v 281.86 -294.09 782.73
v 307.09 -257.56 797.30
v 279.61 -212.00 854.62
v 271.64 -166.44 847.93
v 249.32 -129.91 829.21
v 217.07 -109.63 802.14
v 181.27 -109.63 772.11
v 149.02 -129.91 745.04
v 126.70 -166.44 726.32
v 118.74 -212.00 719.63
v 126.70 -257.56 726.32
v 149.02 -294.09 745.04
v 181.27 -314.37 772.11
v 217.07 -314.37 802.14
v 249.32 -294.09 829.21
v 271.64 -257.56 847.93
v 234.62 -212.00 899.61
v 227.93 -166.44 891.64
v 209.21 -129.91 869.32
v 182.14 -109.63 837.07
v 152.11 -109.63 801.27
v 125.04 -129.91 769.02
v 106.32 -166.44 746.70
v 99.63 -212.00 738.74
v 106.32 -257.56 746.70
v 125.04 -294.09 769.02
v 152.11 -314.37 801.27
v 182.14 -314.37 837.07
v 209.21 -294.09 869.32
v 227.93 -257.56 891.64
v 182.50 -212.00 936.10
v 177.30 -166.44 927.09
v 162.73 -129.91 901.86
v 141.68 -109.63 865.40
v 118.32 -109.63 824.93
v 97.27 -129.91 788.47
v 82.70 -166.44 763.24
v 77.50 -212.00 754.23
v 82.70 -257.56 763.24
v 97.27 -294.09 788.47
v 118.32 -314.37 824.93
v 141.68 -314.37 865.40
v 162.73 -294.09 901.86
v 177.30 -257.56 927.09
v 124.84 -212.00 962.99
v 121.28 -166.44 953.22
v 111.32 -129.91 925.84
v 96.92 -109.63 886.28
v 80.93 -109.63 842.36
v 66.53 -129.91 802.80
v 56.57 -166.44 775.42
v 53.01 -212.00 765.65
v 56.57 -257.56 775.42
v 66.53 -294.09 802.80
v 80.93 -314.37 842.36
v 96.92 -314.37 886.28
v 111.32 -294.09 925.84
v 121.28 -257.56 953.22
v 63.38 -212.00 979.45
v 61.58 -166.44 969.21
v 56.52 -129.91 940.52
v 49.21 -109.63 899.06
v 41.09 -109.63 853.04
v 33.78 -129.91 811.58
v 28.72 -166.44 782.89
v 26.92 -212.00 772.65
v 28.72 -257.56 782.89
v 33.78 -294.09 811.58
v 41.09 -314.37 853.04
v 49.21 -314.37 899.06
v 56.52 -294.09 940.52
v 61.58 -257.56 969.21
v 0.00 -212.00 985.00
v 0.00 -166.44 974.60
v 0.00 -129.91 945.47
v 0.00 -109.63 903.36
v 0.00 -109.63 856.64
v 0.00 -129.91 814.53
v 0.00 -166.44 785.40
v 0.00 -212.00 775.00
v 0.00 -257.56 785.40
v 0.00 -294.09 814.53
v 0.00 -314.37 856.64
v 0.00 -314.37 903.36
v 0.00 -294.09 945.47
v 0.00 -257.56 974.60
v -63.38 -212.00 979.45
v -61.58 -166.44 969.21
v -56.52 -129.91 940.52
v -49.21 -109.63 899.06
v -41.09 -109.63 853.04
v -33.78 -129.91 811.58
v -28.72 -166.44 782.89
v -26.92 -212.00 772.65
v -28.72 -257.56 782.89
v -33.78 -294.09 811.58
v -41.09 -314.37 853.04
v -49.21 -314.37 899.06
v -56.52 -294.09 940.52
v -61.58 -257.56 969.21
v -124.84 -212.00 962.99
v -121.28 -166.44 953.22
v -111.32 -129.91 925.84
v -96.92 -109.63 886.28
v -80.93 -109.63 842.36
v -66.53 -129.91 802.80
v -56.57 -166.44 775.42
v -53.01 -212.00 765.65
v -56.57 -257.56 775.42
v -66.53 -294.09 802.80
v -80.93 -314.37 842.36
v -96.92 -314.37 886.28
v -111.32 -294.09 925.84
v -121.28 -257.56 953.22
v -182.50 -212.00 936.10
v -177.30 -166.44 927.09
v -162.73 -129.91 901.86
v -141.68 -109.63 865.40
v -118.32 -109.63 824.93
v -97.27 -129.91 788.47
v -82.70 -166.44 763.24
v -77.50 -212.00 754.23
v -82.70 -257.56 763.24
v -97.27 -294.09 788.47
v -118.32 -314.37 824.93
v -141.68 -314.37 865.40
v -162.73 -294.09 901.86
v -177.30 -257.56 927.09
v -234.62 -212.00 899.61
v -227.93 -166.44 891.64
v -209.21 -129.91 869.32
v -182.14 -109.63 837.07
v -152.11 -109.63 801.27
v -125.04 -129.91 769.02
v -106.32 -166.44 746.70
v -99.63 -212.00 738.74
v -106.32 -257.56 746.70
v -125.04 -294.09 769.02
v -152.11 -314.37 801.27
v -182.14 -314.37 837.07
v -209.21 -294.09 869.32
v -227.93 -257.56 891.64
v -279.61 -212.00 854.62
v -271.64 -166.44 847.93
v -249.32 -129.91 829.21
v -217.07 -109.63 802.14
v -181.27 -109.63 772.11
v -149.02 -129.91 745.04
v -126.70 -166.44 726.32
v -118.74 -212.00 719.63
v -126.70 -257.56 726.32
v -149.02 -294.09 745.04
v -181.27 -314.37 772.11
v -217.07 -314.37 802.14
v -249.32 -294.09 829.21
v -271.64 -257.56 847.93
v -316.10 -212.00 802.50
v -307.09 -166.44 797.30
v -281.86 -129.91 782.73
v -245.40 -109.63 761.68
v -204.93 -109.63 738.32
v -168.47 -129.91 717.27
v -143.24 -166.44 702.70
v -134.23 -212.00 697.50
v -143.24 -257.56 702.70
v -168.47 -294.09 717.27
v -204.93 -314.37 738.32
v -245.40 -314.37 761.68
v -281.86 -294.09 782.73
v -307.09 -257.56 797.30
v -342.99 -212.00 744.84
v -333.22 -166.44 741.28
v -305.84 -129.91 731.32
v -266.28 -109.63 716.92
v -222.36 -109.63 700.93
v -182.80 -129.91 686.53
v -155.42 -166.44 676.57
v -145.65 -212.00 673.01
v -155.42 -257.56 676.57
v -182.80 -294.09 686.53
v -222.36 -314.37 700.93
v -266.28 -314.37 716.92
v -305.84 -294.09 731.32
v -333.22 -257.56 741.28
v -359.45 -212.00 683.38
v -349.21 -166.44 681.58
v -320.52 -129.91 676.52
v -279.06 -109.63 669.21
v -233.04 -109.63 661.09
v -191.58 -129.91 653.78
v -162.89 -166.44 648.72
v -152.65 -212.00 646.92
v -162.89 -257.56 648.72
v -191.58 -294.09 653.78
v -233.04 -314.37 661.09
v -279.06 -314.37 669.21
v -320.52 -294.09 676.52
v -349.21 -257.56 681.58
v -365.00 -212.00 620.00
v -354.60 -166.44 620.00
v -325.47 -129.91 620.00
v -283.36 -109.63 620.00
v -236.64 -109.63 620.00
v -194.53 -129.91 620.00
v -165.40 -166.44 620.00
v -155.00 -212.00 620.00
v -165.40 -257.56 620.00
v -194.53 -294.09 620.00
v -236.64 -314.37 620.00
v -283.36 -314.37 620.00
v -325.47 -294.09 620.00
v -354.60 -257.56 620.00
v -359.45 -212.00 556.62
v -349.21 -166.44 558.42
v -320.52 -129.91 563.48
v -279.06 -109.63 570.79
v -233.04 -109.63 578.91
v -191.58 -129.91 586.22
v -162.89 -166.44 591.28
v -152.65 -212.00 593.08
v -162.89 -257.56 591.28
v -191.58 -294.09 586.22
v -233.04 -314.37 578.91
v -279.06 -314.37 570.79
v -320.52 -294.09 563.48
v -349.21 -257.56 558.42
v -342.99 -212.00 495.16
v -333.22 -166.44 498.72
v -305.84 -129.91 508.68
v -266.28 -109.63 523.08
v -222.36 -109.63 539.07
v -182.80 -129.91 553.47
v -155.42 -166.44 563.43
v -145.65 -212.00 566.99
v -155.42 -257.56 563.43
v -182.80 -294.09 553.47
v -222.36 -314.37 539.07
v -266.28 -314.37 523.08
v -305.84 -294.09 508.68
v -333.22 -257.56 498.72
v -316.10 -212.00 437.50
v -307.09 -166.44 442.70
v -281.86 -129.91 457.27
v -245.40 -109.63 478.32
v -204.93 -109.63 501.68
v -168.47 -129.91 522.73
v -143.24 -166.44 537.30
v -134.23 -212.00 542.50
v -143.24 -257.56 537.30
v -168.47 -294.09 522.73
v -204.93 -314.37 501.68
v -245.40 -314.37 478.32
v -281.86 -294.09 457.27
v -307.09 -257.56 442.70
v -279.61 -212.00 385.38
v -271.64 -166.44 392.07
v -249.32 -129.91 410.79
v -217.07 -109.63 437.86
v -181.27 -109.63 467.89
v -149.02 -129.91 494.96
v -126.70 -166.44 513.68
v -118.74 -212.00 520.37
v -126.70 -257.56 513.68
v -149.02 -294.09 494.96
v -181.27 -314.37 467.89
v -217.07 -314.37 437.86
v -249.32 -294.09 410.79
v -271.64 -257.56 392.07
v -234.62 -212.00 340.39
v -227.93 -166.44 348.36
v -209.21 -129.91 370.68
v -182.14 -109.63 402.93
v -152.11 -109.63 438.73
v -125.04 -129.91 470.98
v -106.32 -166.44 493.30
v -99.63 -212.00 501.26
v -106.32 -257.56 493.30
v -125.04 -294.09 470.98
v -152.11 -314.37 438.73
v -182.14 -314.37 402.93
v -209.21 -294.09 370.68
v -227.93 -257.56 348.36
v -182.50 -212.00 303.90
v -177.30 -166.44 312.91
v -162.73 -129.91 338.14
v -141.68 -109.63 374.60
v -118.32 -109.63 415.07
v -97.27 -129.91 451.53
v -82.70 -166.44 476.76
v -77.50 -212.00 485.77
v -82.70 -257.56 476.76
v -97.27 -294.09 451.53
v -118.32 -314.37 415.07
v -141.68 -314.37 374.60
v -162.73 -294.09 338.14
v -177.30 -257.56 312.91
v -124.84 -212.00 277.01
v -121.28 -166.44 286.78
v -111.32 -129.91 314.16
v -96.92 -109.63 353.72
v -80.93 -109.63 397.64
v -66.53 -129.91 437.20
v -56.57 -166.44 464.58
v -53.01 -212.00 474.35
v -56.57 -257.56 464.58
v -66.53 -294.09 437.20
v -80.93 -314.37 397.64
v -96.92 -314.37 353.72
v -111.32 -294.09 314.16
v -121.28 -257.56 286.78
v -63.38 -212.00 260.55
v -61.58 -166.44 270.79
v -56.52 -129.91 299.48
v -49.21 -109.63 340.94
v -41.09 -109.63 386.96
v -33.78 -129.91 428.42
v -28.72 -166.44 457.11
v -26.92 -212.00 467.35
v -28.72 -257.56 457.11
v -33.78 -294.09 428.42
v -41.09 -314.37 386.96
v -49.21 -314.37 340.94
v -56.52 -294.09 299.48
v -61.58 -257.56 270.79
v -0.00 -212.00 255.00
v -0.00 -166.44 265.40
v -0.00 -129.91 294.53
v -0.00 -109.63 336.64
v -0.00 -109.63 383.36
v -0.00 -129.91 425.47
v -0.00 -166.44 454.60
v -0.00 -212.00 465.00
v -0.00 -257.56 454.60
v -0.00 -294.09 425.47
v -0.00 -314.37 383.36
v -0.00 -314.37 336.64
v -0.00 -294.09 294.53
v -0.00 -257.56 265.40
v 63.38 -212.00 260.55
v 61.58 -166.44 270.79
v 56.52 -129.91 299.48
v 49.21 -109.63 340.94
v 41.09 -109.63 386.96
v 33.78 -129.91 428.42
v 28.72 -166.44 457.11
v 26.92 -212.00 467.35
v 28.72 -257.56 457.11
v 33.78 -294.09 428.42
v 41.09 -314.37 386.96
v 49.21 -314.37 340.94
v 56.52 -294.09 299.48
v 61.58 -257.56 270.79
v 124.84 -212.00 277.01
v 121.28 -166.44 286.78
v 111.32 -129.91 314.16
v 96.92 -109.63 353.72
v 80.93 -109.63 397.64
v 66.53 -129.91 437.20
v 56.57 -166.44 464.58
v 53.01 -212.00 474.35
v 56.57 -257.56 464.58
v 66.53 -294.09 437.20
v 80.93 -314.37 397.64
v 96.92 -314.37 353.72
v 111.32 -294.09 314.16
v 121.28 -257.56 286.78
v 182.50 -212.00 303.90
v 177.30 -166.44 312.91
v 162.73 -129.91 338.14
v 141.68 -109.63 374.60
v 118.32 -109.63 415.07
v 97.27 -129.91 451.53
v 82.70 -166.44 476.76
v 77.50 -212.00 485.77
v 82.70 -257.56 476.76
v 97.27 -294.09 451.53
v 118.32 -314.37 415.07
v 141.68 -314.37 374.60
v 162.73 -294.09 338.14
v 177.30 -257.56 312.91
v 234.62 -212.00 340.39
v 227.93 -166.44 348.36
v 209.21 -129.91 370.68
v 182.14 -109.63 402.93
v 152.11 -109.63 438.73
v 125.04 -129.91 470.98
v 106.32 -166.44 493.30
v 99.63 -212.00 501.26
v 106.32 -257.56 493.30
v 125.04 -294.09 470.98
v 152.11 -314.37 438.73
v 182.14 -314.37 402.93
v 209.21 -294.09 370.68
v 227.93 -257.56 348.36
v 279.61 -212.00 385.38
v 271.64 -166.44 392.07
v 249.32 -129.91 410.79
v 217.07 -109.63 437.86
v 181.27 -109.63 467.89
v 149.02 -129.91 494.96
v 126.70 -166.44 513.68
v 118.74 -212.00 520.37
v 126.70 -257.56 513.68
v 149.02 -294.09 494.96
v 181.27 -314.37 467.89
v 217.07 -314.37 437.86
v 249.32 -294.09 410.79
v 271.64 -257.56 392.07
v 316.10 -212.00 437.50
v 307.09 -166.44 442.70
v 281.86 -129.91 457.27
v 245.40 -109.63 478.32
v 204.93 -109.63 501.68
v 168.47 -129.91 522.73
v 143.24 -166.44 537.30
v 134.23 -212.00 542.50
v 143.24 -257.56 537.30
v 168.47 -294.09 522.73
v 204.93 -314.37 501.68
v 245.40 -314.37 478.32
v 281.86 -294.09 457.27
v 307.09 -257.56 442.70
v 342.99 -212.00 495.16
v 333.22 -166.44 498.72
v 305.84 -129.91 508.68
v 266.28 -109.63 523.08
v 222.36 -109.63 539.07
v 182.80 -129.91 553.47
v 155.42 -166.44 563.43
v 145.65 -212.00 566.99
v 155.42 -257.56 563.43
v 182.80 -294.09 553.47
v 222.36 -314.37 539.07
v 266.28 -314.37 523.08
v 305.84 -294.09 508.68
v 333.22 -257.56 498.72
v 359.45 -212.00 556.62
v 349.21 -166.44 558.42
v 320.52 -129.91 563.48
v 279.06 -109.63 570.79
v 233.04 -109.63 578.91
v 191.58 -129.91 586.22
v 162.89 -166.44 591.28
v 152.65 -212.00 593.08
v 162.89 -257.56 591.28
v 191.58 -294.09 586.22
v 233.04 -314.37 578.91
v 279.06 -314.37 570.79
v 320.52 -294.09 563.48
v 349.21 -257.56 558.42
v 165.00 -251.90 620.00
v 165.00 -172.10 620.00
v 160.86 -251.90 583.28
v 160.86 -172.10 583.28
v 148.66 -251.90 548.41
v 148.66 -172.10 548.41
v 129.00 -251.90 517.12
v 129.00 -172.10 517.12
v 102.88 -251.90 491.00
v 102.88 -172.10 491.00
v 71.59 -251.90 471.34
v 71.59 -172.10 471.34
v 36.72 -251.90 459.14
v 36.72 -172.10 459.14
v 0.00 -251.90 455.00
v 0.00 -172.10 455.00
v -36.72 -251.90 459.14
v -36.72 -172.10 459.14
v -71.59 -251.90 471.34
v -71.59 -172.10 471.34
v -102.88 -251.90 491.00
v -102.88 -172.10 491.00
v -129.00 -251.90 517.12
v -129.00 -172.10 517.12
v -148.66 -251.90 548.41
v -148.66 -172.10 548.41
v -160.86 -251.90 583.28
v -160.86 -172.10 583.28
v -165.00 -251.90 620.00
v -165.00 -172.10 620.00
v -160.86 -251.90 656.72
v -160.86 -172.10 656.72
v -148.66 -251.90 691.59
v -148.66 -172.10 691.59
v -129.00 -251.90 722.88
v -129.00 -172.10 722.88
v -102.88 -251.90 749.00
v -102.88 -172.10 749.00
v -71.59 -251.90 768.66
v -71.59 -172.10 768.66
v -36.72 -251.90 780.86
v -36.72 -172.10 780.86
v -0.00 -251.90 785.00
v -0.00 -172.10 785.00
v 36.72 -251.90 780.86
v 36.72 -172.10 780.86
v 71.59 -251.90 768.66
v 71.59 -172.10 768.66
v 102.88 -251.90 749.00
v 102.88 -172.10 749.00
v 129.00 -251.90 722.88
v 129.00 -172.10 722.88
v 148.66 -251.90 691.59
v 148.66 -172.10 691.59
v 160.86 -251.90 656.72
v 160.86 -172.10 656.72
v 0.00 -251.90 620.00
v 0.00 -172.10 620.00
o placa_base
f 1 3 7
f 1 7 5
f 2 6 8
f 2 8 4
f 1 5 6
f 1 6 2
f 3 4 8
f 3 8 7
f 1 2 4
f 1 4 3
f 5 7 8
f 5 8 6
o poste_canal
f 9 11 15
f 9 15 13
f 10 14 16
f 10 16 12
f 9 13 14
f 9 14 10
f 11 12 16
f 11 16 15
f 9 10 12
f 9 12 11
f 13 15 16
f 13 16 14
o canales_superiores
f 17 19 23
f 17 23 21
f 18 22 24
f 18 24 20
f 17 21 22
f 17 22 18
f 19 20 24
f 19 24 23
f 17 18 20
f 17 20 19
f 21 23 24
f 21 24 22
f 25 27 31
f 25 31 29
f 26 30 32
f 26 32 28
f 25 29 30
f 25 30 26
f 27 28 32
f 27 32 31
f 25 26 28
f 25 28 27
f 29 31 32
f 29 32 30
f 33 35 39
f 33 39 37
f 34 38 40
f 34 40 36
f 33 37 38
f 33 38 34
f 35 36 40
f 35 40 39
f 33 34 36
f 33 36 35
f 37 39 40
f 37 40 38
o soporte_triangular
f 41 43 47
f 41 47 45
f 42 46 48
f 42 48 44
f 41 45 46
f 41 46 42
f 43 44 48
f 43 48 47
f 41 42 44
f 41 44 43
f 45 47 48
f 45 48 46
o refuerzo
f 49 51 55
f 49 55 53
f 50 54 56
f 50 56 52
f 49 53 54
f 49 54 50
f 51 52 56
f 51 56 55
f 49 50 52
f 49 52 51
f 53 55 56
f 53 56 54
o vastago
f 57 58 60
f 57 60 59
f 59 60 62
f 59 62 61
f 61 62 64
f 61 64 63
f 63 64 66
f 63 66 65
f 65 66 68
f 65 68 67
f 67 68 70
f 67 70 69
f 69 70 72
f 69 72 71
f 71 72 74
f 71 74 73
f 73 74 76
f 73 76 75
f 75 76 78
f 75 78 77
f 77 78 80
f 77 80 79
f 79 80 58
f 79 58 57
f 81 59 57
f 82 58 60
f 81 61 59
f 82 60 62
f 81 63 61
f 82 62 64
f 81 65 63
f 82 64 66
f 81 67 65
f 82 66 68
f 81 69 67
f 82 68 70
f 81 71 69
f 82 70 72
f 81 73 71
f 82 72 74
f 81 75 73
f 82 74 76
f 81 77 75
f 82 76 78
f 81 79 77
f 82 78 80
f 81 57 79
f 82 80 58
f 83 85 89
f 83 89 87
f 84 88 90
f 84 90 86
f 83 87 88
f 83 88 84
f 85 86 90
f 85 90 89
f 83 84 86
f 83 86 85
f 87 89 90
f 87 90 88
o neumatico
f 91 105 106
f 91 106 92
f 92 106 107
f 92 107 93
f 93 107 108
f 93 108 94
f 94 108 109
f 94 109 95
f 95 109 110
f 95 110 96
f 96 110 111
f 96 111 97
f 97 111 112
f 97 112 98
f 98 112 113
f 98 113 99
f 99 113 114
f 99 114 100
f 100 114 115
f 100 115 101
f 101 115 116
f 101 116 102
f 102 116 117
f 102 117 103
f 103 117 118
f 103 118 104
f 104 118 105
f 104 105 91
f 105 119 120
f 105 120 106
f 106 120 121
f 106 121 107
f 107 121 122
f 107 122 108
f 108 122 123
f 108 123 109
f 109 123 124
f 109 124 110
f 110 124 125
f 110 125 111
f 111 125 126
f 111 126 112
f 112 126 127
f 112 127 113
f 113 127 128
f 113 128 114
f 114 128 129
f 114 129 115
f 115 129 130
f 115 130 116
f 116 130 131
f 116 131 117
f 117 131 132
f 117 132 118
f 118 132 119
f 118 119 105
f 119 133 134
f 119 134 120
f 120 134 135
f 120 135 121
f 121 135 136
f 121 136 122
f 122 136 137
f 122 137 123
f 123 137 138
f 123 138 124
f 124 138 139
f 124 139 125
f 125 139 140
f 125 140 126
f 126 140 141
f 126 141 127
f 127 141 142
f 127 142 128
f 128 142 143
f 128 143 129
f 129 143 144
f 129 144 130
f 130 144 145
f 130 145 131
f 131 145 146
f 131 146 132
f 132 146 133
f 132 133 119
f 133 147 148
f 133 148 134
f 134 148 149
f 134 149 135
f 135 149 150
f 135 150 136
f 136 150 151
f 136 151 137
f 137 151 152
f 137 152 138
f 138 152 153
f 138 153 139
f 139 153 154
f 139 154 140
f 140 154 155
f 140 155 141
f 141 155 156
f 141 156 142
f 142 156 157
f 142 157 143
f 143 157 158
f 143 158 144
f 144 158 159
f 144 159 145
f 145 159 160
f 145 160 146
f 146 160 147
f 146 147 133
f 147 161 162
f 147 162 148
f 148 162 163
f 148 163 149
f 149 163 164
f 149 164 150
f 150 164 165
f 150 165 151
f 151 165 166
f 151 166 152
f 152 166 167
f 152 167 153
f 153 167 168
f 153 168 154
f 154 168 169
f 154 169 155
f 155 169 170
f 155 170 156
f 156 170 171
f 156 171 157
f 157 171 172
f 157 172 158
f 158 172 173
f 158 173 159
f 159 173 174
f 159 174 160
f 160 174 161
f 160 161 147
f 161 175 176
f 161 176 162
f 162 176 177
f 162 177 163
f 163 177 178
f 163 178 164
f 164 178 179
f 164 179 165
f 165 179 180
f 165 180 166
f 166 180 181
f 166 181 167
f 167 181 182
f 167 182 168
f 168 182 183
f 168 183 169
f 169 183 184
f 169 184 170
f 170 184 185
f 170 185 171
f 171 185 186
f 171 186 172
f 172 186 187
f 172 187 173
f 173 187 188
f 173 188 174
f 174 188 175
f 174 175 161
f 175 189 190
f 175 190 176
f 176 190 191
f 176 191 177
f 177 191 192
f 177 192 178
f 178 192 193
f 178 193 179
f 179 193 194
f 179 194 180
f 180 194 195
f 180 195 181
f 181 195 196
f 181 196 182
f 182 196 197
f 182 197 183
f 183 197 198
f 183 198 184
f 184 198 199
f 184 199 185
f 185 199 200
f 185 200 186
f 186 200 201
f 186 201 187
f 187 201 202
f 187 202 188
f 188 202 189
f 188 189 175
f 189 203 204
f 189 204 190
f 190 204 205
f 190 205 191
f 191 205 206
f 191 206 192
f 192 206 207
f 192 207 193
f 193 207 208
f 193 208 194
f 194 208 209
f 194 209 195
f 195 209 210
f 195 210 196
f 196 210 211
f 196 211 197
f 197 211 212
f 197 212 198
f 198 212 213
f 198 213 199
f 199 213 214
f 199 214 200
f 200 214 215
f 200 215 201
f 201 215 216
f 201 216 202
f 202 216 203
f 202 203 189
f 203 217 218
f 203 218 204
f 204 218 219
f 204 219 205
f 205 219 220
f 205 220 206
f 206 220 221
f 206 221 207
f 207 221 222
f 207 222 208
f 208 222 223
f 208 223 209
f 209 223 224
f 209 224 210
f 210 224 225
f 210 225 211
f 211 225 226
f 211 226 212
f 212 226 227
f 212 227 213
f 213 227 228
f 213 228 214
f 214 228 229
f 214 229 215
f 215 229 230
f 215 230 216
f 216 230 217
f 216 217 203
f 217 231 232
f 217 232 218
f 218 232 233
f 218 233 219
f 219 233 234
f 219 234 220
f 220 234 235
f 220 235 221
f 221 235 236
f 221 236 222
f 222 236 237
f 222 237 223
f 223 237 238
f 223 238 224
f 224 238 239
f 224 239 225
f 225 239 240
f 225 240 226
f 226 240 241
f 226 241 227
f 227 241 242
f 227 242 228
f 228 242 243
f 228 243 229
f 229 243 244
f 229 244 230
f 230 244 231
f 230 231 217
f 231 245 246
f 231 246 232
f 232 246 247
f 232 247 233
f 233 247 248
f 233 248 234
f 234 248 249
f 234 249 235
f 235 249 250
f 235 250 236
f 236 250 251
f 236 251 237
f 237 251 252
f 237 252 238
f 238 252 253
f 238 253 239
f 239 253 254
f 239 254 240
f 240 254 255
f 240 255 241
f 241 255 256
f 241 256 242
f 242 256 257
f 242 257 243
f 243 257 258
f 243 258 244
f 244 258 245
f 244 245 231
f 245 259 260
f 245 260 246
f 246 260 261
f 246 261 247
f 247 261 262
f 247 262 248
f 248 262 263
f 248 263 249
f 249 263 264
f 249 264 250
f 250 264 265
f 250 265 251
f 251 265 266
f 251 266 252
f 252 266 267
f 252 267 253
f 253 267 268
f 253 268 254
f 254 268 269
f 254 269 255
f 255 269 270
f 255 270 256
f 256 270 271
f 256 271 257
f 257 271 272
f 257 272 258
f 258 272 259
f 258 259 245
f 259 273 274
f 259 274 260
f 260 274 275
f 260 275 261
f 261 275 276
f 261 276 262
f 262 276 277
f 262 277 263
f 263 277 278
f 263 278 264
f 264 278 279
f 264 279 265
f 265 279 280
f 265 280 266
f 266 280 281
f 266 281 267
f 267 281 282
f 267 282 268
f 268 282 283
f 268 283 269
f 269 283 284
f 269 284 270
f 270 284 285
f 270 285 271
f 271 285 286
f 271 286 272
f 272 286 273
f 272 273 259
f 273 287 288
f 273 288 274
f 274 288 289
f 274 289 275
f 275 289 290
f 275 290 276
f 276 290 291
f 276 291 277
f 277 291 292
f 277 292 278
f 278 292 293
f 278 293 279
f 279 293 294
f 279 294 280
f 280 294 295
f 280 295 281
f 281 295 296
f 281 296 282
f 282 296 297
f 282 297 283
f 283 297 298
f 283 298 284
f 284 298 299
f 284 299 285
f 285 299 300
f 285 300 286
f 286 300 287
f 286 287 273
f 287 301 302
f 287 302 288
f 288 302 303
f 288 303 289
f 289 303 304
f 289 304 290
f 290 304 305
f 290 305 291
f 291 305 306
f 291 306 292
f 292 306 307
f 292 307 293
f 293 307 308
f 293 308 294
f 294 308 309
f 294 309 295
f 295 309 310
f 295 310 296
f 296 310 311
f 296 311 297
f 297 311 312
f 297 312 298
f 298 312 313
f 298 313 299
f 299 313 314
f 299 314 300
f 300 314 301
f 300 301 287
f 301 315 316
f 301 316 302
f 302 316 317
f 302 317 303
f 303 317 318
f 303 318 304
f 304 318 319
f 304 319 305
f 305 319 320
f 305 320 306
f 306 320 321
f 306 321 307
f 307 321 322
f 307 322 308
f 308 322 323
f 308 323 309
f 309 323 324
f 309 324 310
f 310 324 325
f 310 325 311
f 311 325 326
f 311 326 312
f 312 326 327
f 312 327 313
f 313 327 328
f 313 328 314
f 314 328 315
f 314 315 301
f 315 329 330
f 315 330 316
f 316 330 331
f 316 331 317
f 317 331 332
f 317 332 318
f 318 332 333
f 318 333 319
f 319 333 334
f 319 334 320
f 320 334 335
f 320 335 321
f 321 335 336
f 321 336 322
f 322 336 337
f 322 337 323
f 323 337 338
f 323 338 324
f 324 338 339
f 324 339 325
f 325 339 340
f 325 340 326
f 326 340 341
f 326 341 327
f 327 341 342
f 327 342 328
f 328 342 329
f 328 329 315
f 329 343 344
f 329 344 330
f 330 344 345
f 330 345 331
f 331 345 346
f 331 346 332
f 332 346 347
f 332 347 333
f 333 347 348
f 333 348 334
f 334 348 349
f 334 349 335
f 335 349 350
f 335 350 336
f 336 350 351
f 336 351 337
f 337 351 352
f 337 352 338
f 338 352 353
f 338 353 339
f 339 353 354
f 339 354 340
f 340 354 355
f 340 355 341
f 341 355 356
f 341 356 342
f 342 356 343
f 342 343 329
f 343 357 358
f 343 358 344
f 344 358 359
f 344 359 345
f 345 359 360
f 345 360 346
f 346 360 361
f 346 361 347
f 347 361 362
f 347 362 348
f 348 362 363
f 348 363 349
f 349 363 364
f 349 364 350
f 350 364 365
f 350 365 351
f 351 365 366
f 351 366 352
f 352 366 367
f 352 367 353
f 353 367 368
f 353 368 354
f 354 368 369
f 354 369 355
f 355 369 370
f 355 370 356
f 356 370 357
f 356 357 343
f 357 371 372
f 357 372 358
f 358 372 373
f 358 373 359
f 359 373 374
f 359 374 360
f 360 374 375
f 360 375 361
f 361 375 376
f 361 376 362
f 362 376 377
f 362 377 363
f 363 377 378
f 363 378 364
f 364 378 379
f 364 379 365
f 365 379 380
f 365 380 366
f 366 380 381
f 366 381 367
f 367 381 382
f 367 382 368
f 368 382 383
f 368 383 369
f 369 383 384
f 369 384 370
f 370 384 371
f 370 371 357
f 371 385 386
f 371 386 372
f 372 386 387
f 372 387 373
f 373 387 388
f 373 388 374
f 374 388 389
f 374 389 375
f 375 389 390
f 375 390 376
f 376 390 391
f 376 391 377
f 377 391 392
f 377 392 378
f 378 392 393
f 378 393 379
f 379 393 394
f 379 394 380
f 380 394 395
f 380 395 381
f 381 395 396
f 381 396 382
f 382 396 397
f 382 397 383
f 383 397 398
f 383 398 384
f 384 398 385
f 384 385 371
f 385 399 400
f 385 400 386
f 386 400 401
f 386 401 387
f 387 401 402
f 387 402 388
f 388 402 403
f 388 403 389
f 389 403 404
f 389 404 390
f 390 404 405
f 390 405 391
f 391 405 406
f 391 406 392
f 392 406 407
f 392 407 393
f 393 407 408
f 393 408 394
f 394 408 409
f 394 409 395
f 395 409 410
f 395 410 396
f 396 410 411
f 396 411 397
f 397 411 412
f 397 412 398
f 398 412 399
f 398 399 385
f 399 413 414
f 399 414 400
f 400 414 415
f 400 415 401
f 401 415 416
f 401 416 402
f 402 416 417
f 402 417 403
f 403 417 418
f 403 418 404
f 404 418 419
f 404 419 405
f 405 419 420
f 405 420 406
f 406 420 421
f 406 421 407
f 407 421 422
f 407 422 408
f 408 422 423
f 408 423 409
f 409 423 424
f 409 424 410
f 410 424 425
f 410 425 411
f 411 425 426
f 411 426 412
f 412 426 413
f 412 413 399
f 413 427 428
f 413 428 414
f 414 428 429
f 414 429 415
f 415 429 430
f 415 430 416
f 416 430 431
f 416 431 417
f 417 431 432
f 417 432 418
f 418 432 433
f 418 433 419
f 419 433 434
f 419 434 420
f 420 434 435
f 420 435 421
f 421 435 436
f 421 436 422
f 422 436 437
f 422 437 423
f 423 437 438
f 423 438 424
f 424 438 439
f 424 439 425
f 425 439 440
f 425 440 426
f 426 440 427
f 426 427 413
f 427 441 442
f 427 442 428
f 428 442 443
f 428 443 429
f 429 443 444
f 429 444 430
f 430 444 445
f 430 445 431
f 431 445 446
f 431 446 432
f 432 446 447
f 432 447 433
f 433 447 448
f 433 448 434
f 434 448 449
f 434 449 435
f 435 449 450
f 435 450 436
f 436 450 451
f 436 451 437
f 437 451 452
f 437 452 438
f 438 452 453
f 438 453 439
f 439 453 454
f 439 454 440
f 440 454 441
f 440 441 427
f 441 455 456
f 441 456 442
f 442 456 457
f 442 457 443
f 443 457 458
f 443 458 444
f 444 458 459
f 444 459 445
f 445 459 460
f 445 460 446
f 446 460 461
f 446 461 447
f 447 461 462
f 447 462 448
f 448 462 463
f 448 463 449
f 449 463 464
f 449 464 450
f 450 464 465
f 450 465 451
f 451 465 466
f 451 466 452
f 452 466 467
f 452 467 453
f 453 467 468
f 453 468 454
f 454 468 455
f 454 455 441
f 455 469 470
f 455 470 456
f 456 470 471
f 456 471 457
f 457 471 472
f 457 472 458
f 458 472 473
f 458 473 459
f 459 473 474
f 459 474 460
f 460 474 475
f 460 475 461
f 461 475 476
f 461 476 462
f 462 476 477
f 462 477 463
f 463 477 478
f 463 478 464
f 464 478 479
f 464 479 465
f 465 479 480
f 465 480 466
f 466 480 481
f 466 481 467
f 467 481 482
f 467 482 468
f 468 482 469
f 468 469 455
f 469 483 484
f 469 484 470
f 470 484 485
f 470 485 471
f 471 485 486
f 471 486 472
f 472 486 487
f 472 487 473
f 473 487 488
f 473 488 474
f 474 488 489
f 474 489 475
f 475 489 490
f 475 490 476
f 476 490 491
f 476 491 477
f 477 491 492
f 477 492 478
f 478 492 493
f 478 493 479
f 479 493 494
f 479 494 480
f 480 494 495
f 480 495 481
f 481 495 496
f 481 496 482
f 482 496 483
f 482 483 469
f 483 497 498
f 483 498 484
f 484 498 499
f 484 499 485
f 485 499 500
f 485 500 486
f 486 500 501
f 486 501 487
f 487 501 502
f 487 502 488
f 488 502 503
f 488 503 489
f 489 503 504
f 489 504 490
f 490 504 505
f 490 505 491
f 491 505 506
f 491 506 492
f 492 506 507
f 492 507 493
f 493 507 508
f 493 508 494
f 494 508 509
f 494 509 495
f 495 509 510
f 495 510 496
f 496 510 497
f 496 497 483
f 497 511 512
f 497 512 498
f 498 512 513
f 498 513 499
f 499 513 514
f 499 514 500
f 500 514 515
f 500 515 501
f 501 515 516
f 501 516 502
f 502 516 517
f 502 517 503
f 503 517 518
f 503 518 504
f 504 518 519
f 504 519 505
f 505 519 520
f 505 520 506
f 506 520 521
f 506 521 507
f 507 521 522
f 507 522 508
f 508 522 523
f 508 523 509
f 509 523 524
f 509 524 510
f 510 524 511
f 510 511 497
f 511 525 526
f 511 526 512
f 512 526 527
f 512 527 513
f 513 527 528
f 513 528 514
f 514 528 529
f 514 529 515
f 515 529 530
f 515 530 516
f 516 530 531
f 516 531 517
f 517 531 532
f 517 532 518
f 518 532 533
f 518 533 519
f 519 533 534
f 519 534 520
f 520 534 535
f 520 535 521
f 521 535 536
f 521 536 522
f 522 536 537
f 522 537 523
f 523 537 538
f 523 538 524
f 524 538 525
f 524 525 511
f 525 539 540
f 525 540 526
f 526 540 541
f 526 541 527
f 527 541 542
f 527 542 528
f 528 542 543
f 528 543 529
f 529 543 544
f 529 544 530
f 530 544 545
f 530 545 531
f 531 545 546
f 531 546 532
f 532 546 547
f 532 547 533
f 533 547 548
f 533 548 534
f 534 548 549
f 534 549 535
f 535 549 550
f 535 550 536
f 536 550 551
f 536 551 537
f 537 551 552
f 537 552 538
f 538 552 539
f 538 539 525
f 539 553 554
f 539 554 540
f 540 554 555
f 540 555 541
f 541 555 556
f 541 556 542
f 542 556 557
f 542 557 543
f 543 557 558
f 543 558 544
f 544 558 559
f 544 559 545
f 545 559 560
f 545 560 546
f 546 560 561
f 546 561 547
f 547 561 562
f 547 562 548
f 548 562 563
f 548 563 549
f 549 563 564
f 549 564 550
f 550 564 565
f 550 565 551
f 551 565 566
f 551 566 552
f 552 566 553
f 552 553 539
f 553 567 568
f 553 568 554
f 554 568 569
f 554 569 555
f 555 569 570
f 555 570 556
f 556 570 571
f 556 571 557
f 557 571 572
f 557 572 558
f 558 572 573
f 558 573 559
f 559 573 574
f 559 574 560
f 560 574 575
f 560 575 561
f 561 575 576
f 561 576 562
f 562 576 577
f 562 577 563
f 563 577 578
f 563 578 564
f 564 578 579
f 564 579 565
f 565 579 580
f 565 580 566
f 566 580 567
f 566 567 553
f 567 581 582
f 567 582 568
f 568 582 583
f 568 583 569
f 569 583 584
f 569 584 570
f 570 584 585
f 570 585 571
f 571 585 586
f 571 586 572
f 572 586 587
f 572 587 573
f 573 587 588
f 573 588 574
f 574 588 589
f 574 589 575
f 575 589 590
f 575 590 576
f 576 590 591
f 576 591 577
f 577 591 592
f 577 592 578
f 578 592 593
f 578 593 579
f 579 593 594
f 579 594 580
f 580 594 581
f 580 581 567
f 581 91 92
f 581 92 582
f 582 92 93
f 582 93 583
f 583 93 94
f 583 94 584
f 584 94 95
f 584 95 585
f 585 95 96
f 585 96 586
f 586 96 97
f 586 97 587
f 587 97 98
f 587 98 588
f 588 98 99
f 588 99 589
f 589 99 100
f 589 100 590
f 590 100 101
f 590 101 591
f 591 101 102
f 591 102 592
f 592 102 103
f 592 103 593
f 593 103 104
f 593 104 594
f 594 104 91
f 594 91 581
o llanta
f 595 596 598
f 595 598 597
f 597 598 600
f 597 600 599
f 599 600 602
f 599 602 601
f 601 602 604
f 601 604 603
f 603 604 606
f 603 606 605
f 605 606 608
f 605 608 607
f 607 608 610
f 607 610 609
f 609 610 612
f 609 612 611
f 611 612 614
f 611 614 613
f 613 614 616
f 613 616 615
f 615 616 618
f 615 618 617
f 617 618 620
f 617 620 619
f 619 620 622
f 619 622 621
f 621 622 624
f 621 624 623
f 623 624 626
f 623 626 625
f 625 626 628
f 625 628 627
f 627 628 630
f 627 630 629
f 629 630 632
f 629 632 631
f 631 632 634
f 631 634 633
f 633 634 636
f 633 636 635
f 635 636 638
f 635 638 637
f 637 638 640
f 637 640 639
f 639 640 642
f 639 642 641
f 641 642 644
f 641 644 643
f 643 644 646
f 643 646 645
f 645 646 648
f 645 648 647
f 647 648 650
f 647 650 649
f 649 650 596
f 649 596 595
f 651 597 595
f 652 596 598
f 651 599 597
f 652 598 600
f 651 601 599
f 652 600 602
f 651 603 601
f 652 602 604
f 651 605 603
f 652 604 606
f 651 607 605
f 652 606 608
f 651 609 607
f 652 608 610
f 651 611 609
f 652 610 612
f 651 613 611
f 652 612 614
f 651 615 613
f 652 614 616
f 651 617 615
f 652 616 618
f 651 619 617
f 652 618 620
f 651 621 619
f 652 620 622
f 651 623 621
f 652 622 624
f 651 625 623
f 652 624 626
f 651 627 625
f 652 626 628
f 651 629 627
f 652 628 630
f 651 631 629
f 652 630 632
f 651 633 631
f 652 632 634
f 651 635 633
f 652 634 636
f 651 637 635
f 652 636 638
f 651 639 637
f 652 638 640
f 651 641 639
f 652 640 642
f 651 643 641
f 652 642 644
f 651 645 643
f 652 644 646
f 651 647 645
f 652 646 648
f 651 649 647
f 652 648 650
f 651 595 649
f 652 650 596
