v -150.00 -110.00 0.00
v -150.00 -110.00 10.00
v -150.00 110.00 0.00
v -150.00 110.00 10.00
v 150.00 -110.00 0.00
v 150.00 -110.00 10.00
v 150.00 110.00 0.00
v 150.00 110.00 10.00
v 0.00 30.00 10.00
v 0.00 30.00 820.00
v -7.76 28.98 10.00
v -7.76 28.98 820.00
v -15.00 25.98 10.00
v -15.00 25.98 820.00
v -21.21 21.21 10.00
v -21.21 21.21 820.00
v -25.98 15.00 10.00
v -25.98 15.00 820.00
v -28.98 7.76 10.00
v -28.98 7.76 820.00
v -30.00 0.00 10.00
v -30.00 0.00 820.00
v -28.98 -7.76 10.00
v -28.98 -7.76 820.00
v -25.98 -15.00 10.00
v -25.98 -15.00 820.00
v -21.21 -21.21 10.00
v -21.21 -21.21 820.00
v -15.00 -25.98 10.00
v -15.00 -25.98 820.00
v -7.76 -28.98 10.00
v -7.76 -28.98 820.00
v -0.00 -30.00 10.00
v -0.00 -30.00 820.00
v 7.76 -28.98 10.00
v 7.76 -28.98 820.00
v 15.00 -25.98 10.00
v 15.00 -25.98 820.00
v 21.21 -21.21 10.00
v 21.21 -21.21 820.00
v 25.98 -15.00 10.00
v 25.98 -15.00 820.00
v 28.98 -7.76 10.00
v 28.98 -7.76 820.00
v 30.00 -0.00 10.00
v 30.00 -0.00 820.00
v 28.98 7.76 10.00
v 28.98 7.76 820.00
v 25.98 15.00 10.00
v 25.98 15.00 820.00
v 21.21 21.21 10.00
v 21.21 21.21 820.00
v 15.00 25.98 10.00
v 15.00 25.98 820.00
v 7.76 28.98 10.00
v 7.76 28.98 820.00
v 0.00 0.00 10.00
v 0.00 0.00 820.00
v 10.00 -30.00 750.00
v 10.00 -30.00 810.00
v 10.00 30.00 750.00
v 10.00 30.00 810.00
v 650.00 -30.00 750.00
v 650.00 -30.00 810.00
v 650.00 30.00 750.00
v 650.00 30.00 810.00
v 410.00 30.00 410.00
v 410.00 30.00 710.00
v 410.00 38.00 410.00
v 410.00 38.00 710.00
v 710.00 30.00 410.00
v 710.00 30.00 710.00
v 710.00 38.00 410.00
v 710.00 38.00 710.00
v 674.00 38.00 560.00
v 674.00 98.00 560.00
v 672.28 38.00 554.71
v 672.28 98.00 554.71
v 667.78 38.00 551.44
v 667.78 98.00 551.44
v 662.22 38.00 551.44
v 662.22 98.00 551.44
v 657.72 38.00 554.71
v 657.72 98.00 554.71
v 656.00 38.00 560.00
v 656.00 98.00 560.00
v 657.72 38.00 565.29
v 657.72 98.00 565.29
v 662.22 38.00 568.56
v 662.22 98.00 568.56
v 667.78 38.00 568.56
v 667.78 98.00 568.56
v 672.28 38.00 565.29
v 672.28 98.00 565.29
v 665.00 38.00 560.00
v 665.00 98.00 560.00
v 601.45 38.00 659.86
v 601.45 98.00 659.86
v 599.73 38.00 654.57
v 599.73 98.00 654.57
v 595.23 38.00 651.30
v 595.23 98.00 651.30
v 589.67 38.00 651.30
v 589.67 98.00 651.30
v 585.17 38.00 654.57
v 585.17 98.00 654.57
v 583.45 38.00 659.86
v 583.45 98.00 659.86
v 585.17 38.00 665.15
v 585.17 98.00 665.15
v 589.67 38.00 668.42
v 589.67 98.00 668.42
v 595.23 38.00 668.42
v 595.23 98.00 668.42
v 599.73 38.00 665.15
v 599.73 98.00 665.15
v 592.45 38.00 659.86
v 592.45 98.00 659.86
v 484.05 38.00 621.72
v 484.05 98.00 621.72
v 482.33 38.00 616.43
v 482.33 98.00 616.43
v 477.83 38.00 613.16
v 477.83 98.00 613.16
v 472.27 38.00 613.16
v 472.27 98.00 613.16
v 467.77 38.00 616.43
v 467.77 98.00 616.43
v 466.05 38.00 621.72
v 466.05 98.00 621.72
v 467.77 38.00 627.01
v 467.77 98.00 627.01
v 472.27 38.00 630.28
v 472.27 98.00 630.28
v 477.83 38.00 630.28
v 477.83 98.00 630.28
v 482.33 38.00 627.01
v 482.33 98.00 627.01
v 475.05 38.00 621.72
v 475.05 98.00 621.72
v 484.05 38.00 498.28
v 484.05 98.00 498.28
v 482.33 38.00 492.99
v 482.33 98.00 492.99
v 477.83 38.00 489.72
v 477.83 98.00 489.72
v 472.27 38.00 489.72
v 472.27 98.00 489.72
v 467.77 38.00 492.99
v 467.77 98.00 492.99
v 466.05 38.00 498.28
v 466.05 98.00 498.28
v 467.77 38.00 503.57
v 467.77 98.00 503.57
v 472.27 38.00 506.84
v 472.27 98.00 506.84
v 477.83 38.00 506.84
v 477.83 98.00 506.84
v 482.33 38.00 503.57
v 482.33 98.00 503.57
v 475.05 38.00 498.28
v 475.05 98.00 498.28
v 601.45 38.00 460.14
v 601.45 98.00 460.14
v 599.73 38.00 454.85
v 599.73 98.00 454.85
v 595.23 38.00 451.58
v 595.23 98.00 451.58
v 589.67 38.00 451.58
v 589.67 98.00 451.58
v 585.17 38.00 454.85
v 585.17 98.00 454.85
v 583.45 38.00 460.14
v 583.45 98.00 460.14
v 585.17 38.00 465.43
v 585.17 98.00 465.43
v 589.67 38.00 468.70
v 589.67 98.00 468.70
v 595.23 38.00 468.70
v 595.23 98.00 468.70
v 599.73 38.00 465.43
v 599.73 98.00 465.43
v 592.45 38.00 460.14
v 592.45 98.00 460.14
v 330.00 -12.00 780.00
v 329.12 -11.70 777.48
v 328.29 -10.81 775.08
v 327.54 -9.38 772.93
v 326.92 -7.48 771.14
v 326.45 -5.21 769.79
v 326.16 -2.67 768.95
v 326.06 -0.00 768.67
v 326.16 2.67 768.95
v 326.45 5.21 769.79
v 326.92 7.48 771.14
v 327.54 9.38 772.93
v 328.29 10.81 775.08
v 329.12 11.70 777.48
v 330.00 12.00 780.00
v 330.88 11.70 782.52
v 331.71 10.81 784.92
v 332.46 9.38 787.07
v 333.08 7.48 788.86
v 333.55 5.21 790.21
v 333.84 2.67 791.05
v 333.94 0.00 791.33
v 333.84 -2.67 791.05
v 333.55 -5.21 790.21
v 333.08 -7.48 788.86
v 332.46 -9.38 787.07
v 331.71 -10.81 784.92
v 330.88 -11.70 782.52
v 560.00 -12.00 700.00
v 559.12 -11.70 697.48
v 558.29 -10.81 695.08
v 557.54 -9.38 692.93
v 556.92 -7.48 691.14
v 556.45 -5.21 689.79
v 556.16 -2.67 688.95
v 556.06 -0.00 688.67
v 556.16 2.67 688.95
v 556.45 5.21 689.79
v 556.92 7.48 691.14
v 557.54 9.38 692.93
v 558.29 10.81 695.08
v 559.12 11.70 697.48
v 560.00 12.00 700.00
v 560.88 11.70 702.52
v 561.71 10.81 704.92
v 562.46 9.38 707.07
v 563.08 7.48 708.86
v 563.55 5.21 710.21
v 563.84 2.67 711.05
v 563.94 0.00 711.33
v 563.84 -2.67 711.05
v 563.55 -5.21 710.21
v 563.08 -7.48 708.86
v 562.46 -9.38 707.07
v 561.71 -10.81 704.92
v 560.88 -11.70 702.52
v 330.00 0.00 780.00
v 560.00 0.00 700.00
v 925.00 160.00 560.00
v 914.60 205.56 560.00
v 885.47 242.09 560.00
v 843.36 262.37 560.00
v 796.64 262.37 560.00
v 754.53 242.09 560.00
v 725.40 205.56 560.00
v 715.00 160.00 560.00
v 725.40 114.44 560.00
v 754.53 77.91 560.00
v 796.64 57.63 560.00
v 843.36 57.63 560.00
v 885.47 77.91 560.00
v 914.60 114.44 560.00
v 919.45 160.00 623.38
v 909.21 205.56 621.58
v 880.52 242.09 616.52
v 839.06 262.37 609.21
v 793.04 262.37 601.09
v 751.58 242.09 593.78
v 722.89 205.56 588.72
v 712.65 160.00 586.92
v 722.89 114.44 588.72
v 751.58 77.91 593.78
v 793.04 57.63 601.09
v 839.06 57.63 609.21
v 880.52 77.91 616.52
v 909.21 114.44 621.58
v 902.99 160.00 684.84
v 893.22 205.56 681.28
v 865.84 242.09 671.32
v 826.28 262.37 656.92
v 782.36 262.37 640.93
v 742.80 242.09 626.53
v 715.42 205.56 616.57
v 705.65 160.00 613.01
v 715.42 114.44 616.57
v 742.80 77.91 626.53
v 782.36 57.63 640.93
v 826.28 57.63 656.92
v 865.84 77.91 671.32
v 893.22 114.44 681.28
v 876.10 160.00 742.50
v 867.09 205.56 737.30
v 841.86 242.09 722.73
v 805.40 262.37 701.68
v 764.93 262.37 678.32
v 728.47 242.09 657.27
v 703.24 205.56 642.70
v 694.23 160.00 637.50
v 703.24 114.44 642.70
v 728.47 77.91 657.27
v 764.93 57.63 678.32
v 805.40 57.63 701.68
v 841.86 77.91 722.73
v 867.09 114.44 737.30
v 839.61 160.00 794.62
v 831.64 205.56 787.93
v 809.32 242.09 769.21
v 777.07 262.37 742.14
v 741.27 262.37 712.11
v 709.02 242.09 685.04
v 686.70 205.56 666.32
v 678.74 160.00 659.63
v 686.70 114.44 666.32
v 709.02 77.91 685.04
v 741.27 57.63 712.11
v 777.07 57.63 742.14
v 809.32 77.91 769.21
v 831.64 114.44 787.93
v 794.62 160.00 839.61
v 787.93 205.56 831.64
v 769.21 242.09 809.32
v 742.14 262.37 777.07
v 712.11 262.37 741.27
v 685.04 242.09 709.02
v 666.32 205.56 686.70
v 659.63 160.00 678.74
v 666.32 114.44 686.70
v 685.04 77.91 709.02
v 712.11 57.63 741.27
v 742.14 57.63 777.07
v 769.21 77.91 809.32
v 787.93 114.44 831.64
v 742.50 160.00 876.10
v 737.30 205.56 867.09
v 722.73 242.09 841.86
v 701.68 262.37 805.40
v 678.32 262.37 764.93
v 657.27 242.09 728.47
v 642.70 205.56 703.24
v 637.50 160.00 694.23
v 642.70 114.44 703.24
v 657.27 77.91 728.47
v 678.32 57.63 764.93
v 701.68 57.63 805.40
v 722.73 77.91 841.86
v 737.30 114.44 867.09
v 684.84 160.00 902.99
v 681.28 205.56 893.22
v 671.32 242.09 865.84
v 656.92 262.37 826.28
v 640.93 262.37 782.36
v 626.53 242.09 742.80
v 616.57 205.56 715.42
v 613.01 160.00 705.65
v 616.57 114.44 715.42
v 626.53 77.91 742.80
v 640.93 57.63 782.36
v 656.92 57.63 826.28
v 671.32 77.91 865.84
v 681.28 114.44 893.22
v 623.38 160.00 919.45
v 621.58 205.56 909.21
v 616.52 242.09 880.52
v 609.21 262.37 839.06
v 601.09 262.37 793.04
v 593.78 242.09 751.58
v 588.72 205.56 722.89
v 586.92 160.00 712.65
v 588.72 114.44 722.89
v 593.78 77.91 751.58
v 601.09 57.63 793.04
v 609.21 57.63 839.06
v 616.52 77.91 880.52
v 621.58 114.44 909.21
v 560.00 160.00 925.00
v 560.00 205.56 914.60
v 560.00 242.09 885.47
v 560.00 262.37 843.36
v 560.00 262.37 796.64
v 560.00 242.09 754.53
v 560.00 205.56 725.40
v 560.00 160.00 715.00
v 560.00 114.44 725.40
v 560.00 77.91 754.53
v 560.00 57.63 796.64
v 560.00 57.63 843.36
v 560.00 77.91 885.47
v 560.00 114.44 914.60
v 496.62 160.00 919.45
v 498.42 205.56 909.21
v 503.48 242.09 880.52
v 510.79 262.37 839.06
v 518.91 262.37 793.04
v 526.22 242.09 751.58
v 531.28 205.56 722.89
v 533.08 160.00 712.65
v 531.28 114.44 722.89
v 526.22 77.91 751.58
v 518.91 57.63 793.04
v 510.79 57.63 839.06
v 503.48 77.91 880.52
v 498.42 114.44 909.21
v 435.16 160.00 902.99
v 438.72 205.56 893.22
v 448.68 242.09 865.84
v 463.08 262.37 826.28
v 479.07 262.37 782.36
v 493.47 242.09 742.80
v 503.43 205.56 715.42
v 506.99 160.00 705.65
v 503.43 114.44 715.42
v 493.47 77.91 742.80
v 479.07 57.63 782.36
v 463.08 57.63 826.28
v 448.68 77.91 865.84
v 438.72 114.44 893.22
v 377.50 160.00 876.10
v 382.70 205.56 867.09
v 397.27 242.09 841.86
v 418.32 262.37 805.40
v 441.68 262.37 764.93
v 462.73 242.09 728.47
v 477.30 205.56 703.24
v 482.50 160.00 694.23
v 477.30 114.44 703.24
v 462.73 77.91 728.47
v 441.68 57.63 764.93
v 418.32 57.63 805.40
v 397.27 77.91 841.86
v 382.70 114.44 867.09
v 325.38 160.00 839.61
v 332.07 205.56 831.64
v 350.79 242.09 809.32
v 377.86 262.37 777.07
v 407.89 262.37 741.27
v 434.96 242.09 709.02
v 453.68 205.56 686.70
v 460.37 160.00 678.74
v 453.68 114.44 686.70
v 434.96 77.91 709.02
v 407.89 57.63 741.27
v 377.86 57.63 777.07
v 350.79 77.91 809.32
v 332.07 114.44 831.64
v 280.39 160.00 794.62
v 288.36 205.56 787.93
v 310.68 242.09 769.21
v 342.93 262.37 742.14
v 378.73 262.37 712.11
v 410.98 242.09 685.04
v 433.30 205.56 666.32
v 441.26 160.00 659.63
v 433.30 114.44 666.32
v 410.98 77.91 685.04
v 378.73 57.63 712.11
v 342.93 57.63 742.14
v 310.68 77.91 769.21
v 288.36 114.44 787.93
v 243.90 160.00 742.50
v 252.91 205.56 737.30
v 278.14 242.09 722.73
v 314.60 262.37 701.68
v 355.07 262.37 678.32
v 391.53 242.09 657.27
v 416.76 205.56 642.70
v 425.77 160.00 637.50
v 416.76 114.44 642.70
v 391.53 77.91 657.27
v 355.07 57.63 678.32
v 314.60 57.63 701.68
v 278.14 77.91 722.73
v 252.91 114.44 737.30
v 217.01 160.00 684.84
v 226.78 205.56 681.28
v 254.16 242.09 671.32
v 293.72 262.37 656.92
v 337.64 262.37 640.93
v 377.20 242.09 626.53
v 404.58 205.56 616.57
v 414.35 160.00 613.01
v 404.58 114.44 616.57
v 377.20 77.91 626.53
v 337.64 57.63 640.93
v 293.72 57.63 656.92
v 254.16 77.91 671.32
v 226.78 114.44 681.28
v 200.55 160.00 623.38
v 210.79 205.56 621.58
v 239.48 242.09 616.52
v 280.94 262.37 609.21
v 326.96 262.37 601.09
v 368.42 242.09 593.78
v 397.11 205.56 588.72
v 407.35 160.00 586.92
v 397.11 114.44 588.72
v 368.42 77.91 593.78
v 326.96 57.63 601.09
v 280.94 57.63 609.21
v 239.48 77.91 616.52
v 210.79 114.44 621.58
v 195.00 160.00 560.00
v 205.40 205.56 560.00
v 234.53 242.09 560.00
v 276.64 262.37 560.00
v 323.36 262.37 560.00
v 365.47 242.09 560.00
v 394.60 205.56 560.00
v 405.00 160.00 560.00
v 394.60 114.44 560.00
v 365.47 77.91 560.00
v 323.36 57.63 560.00
v 276.64 57.63 560.00
v 234.53 77.91 560.00
v 205.40 114.44 560.00
v 200.55 160.00 496.62
v 210.79 205.56 498.42
v 239.48 242.09 503.48
v 280.94 262.37 510.79
v 326.96 262.37 518.91
v 368.42 242.09 526.22
v 397.11 205.56 531.28
v 407.35 160.00 533.08
v 397.11 114.44 531.28
v 368.42 77.91 526.22
v 326.96 57.63 518.91
v 280.94 57.63 510.79
v 239.48 77.91 503.48
v 210.79 114.44 498.42
v 217.01 160.00 435.16
v 226.78 205.56 438.72
v 254.16 242.09 448.68
v 293.72 262.37 463.08
v 337.64 262.37 479.07
v 377.20 242.09 493.47
v 404.58 205.56 503.43
v 414.35 160.00 506.99
v 404.58 114.44 503.43
v 377.20 77.91 493.47
v 337.64 57.63 479.07
v 293.72 57.63 463.08
v 254.16 77.91 448.68
v 226.78 114.44 438.72
v 243.90 160.00 377.50
v 252.91 205.56 382.70
v 278.14 242.09 397.27
v 314.60 262.37 418.32
v 355.07 262.37 441.68
v 391.53 242.09 462.73
v 416.76 205.56 477.30
v 425.77 160.00 482.50
v 416.76 114.44 477.30
v 391.53 77.91 462.73
v 355.07 57.63 441.68
v 314.60 57.63 418.32
v 278.14 77.91 397.27
v 252.91 114.44 382.70
v 280.39 160.00 325.38
v 288.36 205.56 332.07
v 310.68 242.09 350.79
v 342.93 262.37 377.86
v 378.73 262.37 407.89
v 410.98 242.09 434.96
v 433.30 205.56 453.68
v 441.26 160.00 460.37
v 433.30 114.44 453.68
v 410.98 77.91 434.96
v 378.73 57.63 407.89
v 342.93 57.63 377.86
v 310.68 77.91 350.79
v 288.36 114.44 332.07
v 325.38 160.00 280.39
v 332.07 205.56 288.36
v 350.79 242.09 310.68
v 377.86 262.37 342.93
v 407.89 262.37 378.73
v 434.96 242.09 410.98
v 453.68 205.56 433.30
v 460.37 160.00 441.26
v 453.68 114.44 433.30
v 434.96 77.91 410.98
v 407.89 57.63 378.73
v 377.86 57.63 342.93
v 350.79 77.91 310.68
v 332.07 114.44 288.36
v 377.50 160.00 243.90
v 382.70 205.56 252.91
v 397.27 242.09 278.14
v 418.32 262.37 314.60
v 441.68 262.37 355.07
v 462.73 242.09 391.53
v 477.30 205.56 416.76
v 482.50 160.00 425.77
v 477.30 114.44 416.76
v 462.73 77.91 391.53
v 441.68 57.63 355.07
v 418.32 57.63 314.60
v 397.27 77.91 278.14
v 382.70 114.44 252.91
v 435.16 160.00 217.01
v 438.72 205.56 226.78
v 448.68 242.09 254.16
v 463.08 262.37 293.72
v 479.07 262.37 337.64
v 493.47 242.09 377.20
v 503.43 205.56 404.58
v 506.99 160.00 414.35
v 503.43 114.44 404.58
v 493.47 77.91 377.20
v 479.07 57.63 337.64
v 463.08 57.63 293.72
v 448.68 77.91 254.16
v 438.72 114.44 226.78
v 496.62 160.00 200.55
v 498.42 205.56 210.79
v 503.48 242.09 239.48
v 510.79 262.37 280.94
v 518.91 262.37 326.96
v 526.22 242.09 368.42
v 531.28 205.56 397.11
v 533.08 160.00 407.35
v 531.28 114.44 397.11
v 526.22 77.91 368.42
v 518.91 57.63 326.96
v 510.79 57.63 280.94
v 503.48 77.91 239.48
v 498.42 114.44 210.79
v 560.00 160.00 195.00
v 560.00 205.56 205.40
v 560.00 242.09 234.53
v 560.00 262.37 276.64
v 560.00 262.37 323.36
v 560.00 242.09 365.47
v 560.00 205.56 394.60
v 560.00 160.00 405.00
v 560.00 114.44 394.60
v 560.00 77.91 365.47
v 560.00 57.63 323.36
v 560.00 57.63 276.64
v 560.00 77.91 234.53
v 560.00 114.44 205.40
v 623.38 160.00 200.55
v 621.58 205.56 210.79
v 616.52 242.09 239.48
v 609.21 262.37 280.94
v 601.09 262.37 326.96
v 593.78 242.09 368.42
v 588.72 205.56 397.11
v 586.92 160.00 407.35
v 588.72 114.44 397.11
v 593.78 77.91 368.42
v 601.09 57.63 326.96
v 609.21 57.63 280.94
v 616.52 77.91 239.48
v 621.58 114.44 210.79
v 684.84 160.00 217.01
v 681.28 205.56 226.78
v 671.32 242.09 254.16
v 656.92 262.37 293.72
v 640.93 262.37 337.64
v 626.53 242.09 377.20
v 616.57 205.56 404.58
v 613.01 160.00 414.35
v 616.57 114.44 404.58
v 626.53 77.91 377.20
v 640.93 57.63 337.64
v 656.92 57.63 293.72
v 671.32 77.91 254.16
v 681.28 114.44 226.78
v 742.50 160.00 243.90
v 737.30 205.56 252.91
v 722.73 242.09 278.14
v 701.68 262.37 314.60
v 678.32 262.37 355.07
v 657.27 242.09 391.53
v 642.70 205.56 416.76
v 637.50 160.00 425.77
v 642.70 114.44 416.76
v 657.27 77.91 391.53
v 678.32 57.63 355.07
v 701.68 57.63 314.60
v 722.73 77.91 278.14
v 737.30 114.44 252.91
v 794.62 160.00 280.39
v 787.93 205.56 288.36
v 769.21 242.09 310.68
v 742.14 262.37 342.93
v 712.11 262.37 378.73
v 685.04 242.09 410.98
v 666.32 205.56 433.30
v 659.63 160.00 441.26
v 666.32 114.44 433.30
v 685.04 77.91 410.98
v 712.11 57.63 378.73
v 742.14 57.63 342.93
v 769.21 77.91 310.68
v 787.93 114.44 288.36
v 839.61 160.00 325.38
v 831.64 205.56 332.07
v 809.32 242.09 350.79
v 777.07 262.37 377.86
v 741.27 262.37 407.89
v 709.02 242.09 434.96
v 686.70 205.56 453.68
v 678.74 160.00 460.37
v 686.70 114.44 453.68
v 709.02 77.91 434.96
v 741.27 57.63 407.89
v 777.07 57.63 377.86
v 809.32 77.91 350.79
v 831.64 114.44 332.07
v 876.10 160.00 377.50
v 867.09 205.56 382.70
v 841.86 242.09 397.27
v 805.40 262.37 418.32
v 764.93 262.37 441.68
v 728.47 242.09 462.73
v 703.24 205.56 477.30
v 694.23 160.00 482.50
v 703.24 114.44 477.30
v 728.47 77.91 462.73
v 764.93 57.63 441.68
v 805.40 57.63 418.32
v 841.86 77.91 397.27
v 867.09 114.44 382.70
v 902.99 160.00 435.16
v 893.22 205.56 438.72
v 865.84 242.09 448.68
v 826.28 262.37 463.08
v 782.36 262.37 479.07
v 742.80 242.09 493.47
v 715.42 205.56 503.43
v 705.65 160.00 506.99
v 715.42 114.44 503.43
v 742.80 77.91 493.47
v 782.36 57.63 479.07
v 826.28 57.63 463.08
v 865.84 77.91 448.68
v 893.22 114.44 438.72
v 919.45 160.00 496.62
v 909.21 205.56 498.42
v 880.52 242.09 503.48
v 839.06 262.37 510.79
v 793.04 262.37 518.91
v 751.58 242.09 526.22
v 722.89 205.56 531.28
v 712.65 160.00 533.08
v 722.89 114.44 531.28
v 751.58 77.91 526.22
v 793.04 57.63 518.91
v 839.06 57.63 510.79
v 880.52 77.91 503.48
v 909.21 114.44 498.42
v 725.00 120.00 560.00
v 725.00 200.00 560.00
v 720.86 120.00 523.28
v 720.86 200.00 523.28
v 708.66 120.00 488.41
v 708.66 200.00 488.41
v 689.00 120.00 457.12
v 689.00 200.00 457.12
v 662.88 120.00 431.00
v 662.88 200.00 431.00
v 631.59 120.00 411.34
v 631.59 200.00 411.34
v 596.72 120.00 399.14
v 596.72 200.00 399.14
v 560.00 120.00 395.00
v 560.00 200.00 395.00
v 523.28 120.00 399.14
v 523.28 200.00 399.14
v 488.41 120.00 411.34
v 488.41 200.00 411.34
v 457.12 120.00 431.00
v 457.12 200.00 431.00
v 431.00 120.00 457.12
v 431.00 200.00 457.12
v 411.34 120.00 488.41
v 411.34 200.00 488.41
v 399.14 120.00 523.28
v 399.14 200.00 523.28
v 395.00 120.00 560.00
v 395.00 200.00 560.00
v 399.14 120.00 596.72
v 399.14 200.00 596.72
v 411.34 120.00 631.59
v 411.34 200.00 631.59
v 431.00 120.00 662.88
v 431.00 200.00 662.88
v 457.12 120.00 689.00
v 457.12 200.00 689.00
v 488.41 120.00 708.66
v 488.41 200.00 708.66
v 523.28 120.00 720.86
v 523.28 200.00 720.86
v 560.00 120.00 725.00
v 560.00 200.00 725.00
v 596.72 120.00 720.86
v 596.72 200.00 720.86
v 631.59 120.00 708.66
v 631.59 200.00 708.66
v 662.88 120.00 689.00
v 662.88 200.00 689.00
v 689.00 120.00 662.88
v 689.00 200.00 662.88
v 708.66 120.00 631.59
v 708.66 200.00 631.59
v 720.86 120.00 596.72
v 720.86 200.00 596.72
v 560.00 120.00 560.00
v 560.00 200.00 560.00
o placa_base
f 1 3 7
f 1 7 5
f 2 6 8
f 2 8 4
f 1 5 6
f 1 6 2
f 3 4 8
f 3 8 7
f 1 2 4
f 1 4 3
f 5 7 8
f 5 8 6
o poste_bisagra
f 9 10 12
f 9 12 11
f 11 12 14
f 11 14 13
f 13 14 16
f 13 16 15
f 15 16 18
f 15 18 17
f 17 18 20
f 17 20 19
f 19 20 22
f 19 22 21
f 21 22 24
f 21 24 23
f 23 24 26
f 23 26 25
f 25 26 28
f 25 28 27
f 27 28 30
f 27 30 29
f 29 30 32
f 29 32 31
f 31 32 34
f 31 34 33
f 33 34 36
f 33 36 35
f 35 36 38
f 35 38 37
f 37 38 40
f 37 40 39
f 39 40 42
f 39 42 41
f 41 42 44
f 41 44 43
f 43 44 46
f 43 46 45
f 45 46 48
f 45 48 47
f 47 48 50
f 47 50 49
f 49 50 52
f 49 52 51
f 51 52 54
f 51 54 53
f 53 54 56
f 53 56 55
f 55 56 10
f 55 10 9
f 57 11 9
f 58 10 12
f 57 13 11
f 58 12 14
f 57 15 13
f 58 14 16
f 57 17 15
f 58 16 18
f 57 19 17
f 58 18 20
f 57 21 19
f 58 20 22
f 57 23 21
f 58 22 24
f 57 25 23
f 58 24 26
f 57 27 25
f 58 26 28
f 57 29 27
f 58 28 30
f 57 31 29
f 58 30 32
f 57 33 31
f 58 32 34
f 57 35 33
f 58 34 36
f 57 37 35
f 58 36 38
f 57 39 37
f 58 38 40
f 57 41 39
f 58 40 42
f 57 43 41
f 58 42 44
f 57 45 43
f 58 44 46
f 57 47 45
f 58 46 48
f 57 49 47
f 58 48 50
f 57 51 49
f 58 50 52
f 57 53 51
f 58 52 54
f 57 55 53
f 58 54 56
f 57 9 55
f 58 56 10
o brazo
f 59 61 65
f 59 65 63
f 60 64 66
f 60 66 62
f 59 63 64
f 59 64 60
f 61 62 66
f 61 66 65
f 59 60 62
f 59 62 61
f 63 65 66
f 63 66 64
o placa_rueda
f 67 69 73
f 67 73 71
f 68 72 74
f 68 74 70
f 67 71 72
f 67 72 68
f 69 70 74
f 69 74 73
f 67 68 70
f 67 70 69
f 71 73 74
f 71 74 72
o esparragos
f 75 76 78
f 75 78 77
f 77 78 80
f 77 80 79
f 79 80 82
f 79 82 81
f 81 82 84
f 81 84 83
f 83 84 86
f 83 86 85
f 85 86 88
f 85 88 87
f 87 88 90
f 87 90 89
f 89 90 92
f 89 92 91
f 91 92 94
f 91 94 93
f 93 94 76
f 93 76 75
f 95 77 75
f 96 76 78
f 95 79 77
f 96 78 80
f 95 81 79
f 96 80 82
f 95 83 81
f 96 82 84
f 95 85 83
f 96 84 86
f 95 87 85
f 96 86 88
f 95 89 87
f 96 88 90
f 95 91 89
f 96 90 92
f 95 93 91
f 96 92 94
f 95 75 93
f 96 94 76
f 97 98 100
f 97 100 99
f 99 100 102
f 99 102 101
f 101 102 104
f 101 104 103
f 103 104 106
f 103 106 105
f 105 106 108
f 105 108 107
f 107 108 110
f 107 110 109
f 109 110 112
f 109 112 111
f 111 112 114
f 111 114 113
f 113 114 116
f 113 116 115
f 115 116 98
f 115 98 97
f 117 99 97
f 118 98 100
f 117 101 99
f 118 100 102
f 117 103 101
f 118 102 104
f 117 105 103
f 118 104 106
f 117 107 105
f 118 106 108
f 117 109 107
f 118 108 110
f 117 111 109
f 118 110 112
f 117 113 111
f 118 112 114
f 117 115 113
f 118 114 116
f 117 97 115
f 118 116 98
f 119 120 122
f 119 122 121
f 121 122 124
f 121 124 123
f 123 124 126
f 123 126 125
f 125 126 128
f 125 128 127
f 127 128 130
f 127 130 129
f 129 130 132
f 129 132 131
f 131 132 134
f 131 134 133
f 133 134 136
f 133 136 135
f 135 136 138
f 135 138 137
f 137 138 120
f 137 120 119
f 139 121 119
f 140 120 122
f 139 123 121
f 140 122 124
f 139 125 123
f 140 124 126
f 139 127 125
f 140 126 128
f 139 129 127
f 140 128 130
f 139 131 129
f 140 130 132
f 139 133 131
f 140 132 134
f 139 135 133
f 140 134 136
f 139 137 135
f 140 136 138
f 139 119 137
f 140 138 120
f 141 142 144
f 141 144 143
f 143 144 146
f 143 146 145
f 145 146 148
f 145 148 147
f 147 148 150
f 147 150 149
f 149 150 152
f 149 152 151
f 151 152 154
f 151 154 153
f 153 154 156
f 153 156 155
f 155 156 158
f 155 158 157
f 157 158 160
f 157 160 159
f 159 160 142
f 159 142 141
f 161 143 141
f 162 142 144
f 161 145 143
f 162 144 146
f 161 147 145
f 162 146 148
f 161 149 147
f 162 148 150
f 161 151 149
f 162 150 152
f 161 153 151
f 162 152 154
f 161 155 153
f 162 154 156
f 161 157 155
f 162 156 158
f 161 159 157
f 162 158 160
f 161 141 159
f 162 160 142
f 163 164 166
f 163 166 165
f 165 166 168
f 165 168 167
f 167 168 170
f 167 170 169
f 169 170 172
f 169 172 171
f 171 172 174
f 171 174 173
f 173 174 176
f 173 176 175
f 175 176 178
f 175 178 177
f 177 178 180
f 177 180 179
f 179 180 182
f 179 182 181
f 181 182 164
f 181 164 163
f 183 165 163
f 184 164 166
f 183 167 165
f 184 166 168
f 183 169 167
f 184 168 170
f 183 171 169
f 184 170 172
f 183 173 171
f 184 172 174
f 183 175 173
f 184 174 176
f 183 177 175
f 184 176 178
f 183 179 177
f 184 178 180
f 183 181 179
f 184 180 182
f 183 163 181
f 184 182 164
o tirante
f 185 213 214
f 185 214 186
f 186 214 215
f 186 215 187
f 187 215 216
f 187 216 188
f 188 216 217
f 188 217 189
f 189 217 218
f 189 218 190
f 190 218 219
f 190 219 191
f 191 219 220
f 191 220 192
f 192 220 221
f 192 221 193
f 193 221 222
f 193 222 194
f 194 222 223
f 194 223 195
f 195 223 224
f 195 224 196
f 196 224 225
f 196 225 197
f 197 225 226
f 197 226 198
f 198 226 227
f 198 227 199
f 199 227 228
f 199 228 200
f 200 228 229
f 200 229 201
f 201 229 230
f 201 230 202
f 202 230 231
f 202 231 203
f 203 231 232
f 203 232 204
f 204 232 233
f 204 233 205
f 205 233 234
f 205 234 206
f 206 234 235
f 206 235 207
f 207 235 236
f 207 236 208
f 208 236 237
f 208 237 209
f 209 237 238
f 209 238 210
f 210 238 239
f 210 239 211
f 211 239 240
f 211 240 212
f 212 240 213
f 212 213 185
f 241 186 185
f 241 187 186
f 241 188 187
f 241 189 188
f 241 190 189
f 241 191 190
f 241 192 191
f 241 193 192
f 241 194 193
f 241 195 194
f 241 196 195
f 241 197 196
f 241 198 197
f 241 199 198
f 241 200 199
f 241 201 200
f 241 202 201
f 241 203 202
f 241 204 203
f 241 205 204
f 241 206 205
f 241 207 206
f 241 208 207
f 241 209 208
f 241 210 209
f 241 211 210
f 241 212 211
f 241 185 212
f 242 213 214
f 242 214 215
f 242 215 216
f 242 216 217
f 242 217 218
f 242 218 219
f 242 219 220
f 242 220 221
f 242 221 222
f 242 222 223
f 242 223 224
f 242 224 225
f 242 225 226
f 242 226 227
f 242 227 228
f 242 228 229
f 242 229 230
f 242 230 231
f 242 231 232
f 242 232 233
f 242 233 234
f 242 234 235
f 242 235 236
f 242 236 237
f 242 237 238
f 242 238 239
f 242 239 240
f 242 240 213
o neumatico
f 243 257 258
f 243 258 244
f 244 258 259
f 244 259 245
f 245 259 260
f 245 260 246
f 246 260 261
f 246 261 247
f 247 261 262
f 247 262 248
f 248 262 263
f 248 263 249
f 249 263 264
f 249 264 250
f 250 264 265
f 250 265 251
f 251 265 266
f 251 266 252
f 252 266 267
f 252 267 253
f 253 267 268
f 253 268 254
f 254 268 269
f 254 269 255
f 255 269 270
f 255 270 256
f 256 270 257
f 256 257 243
f 257 271 272
f 257 272 258
f 258 272 273
f 258 273 259
f 259 273 274
f 259 274 260
f 260 274 275
f 260 275 261
f 261 275 276
f 261 276 262
f 262 276 277
f 262 277 263
f 263 277 278
f 263 278 264
f 264 278 279
f 264 279 265
f 265 279 280
f 265 280 266
f 266 280 281
f 266 281 267
f 267 281 282
f 267 282 268
f 268 282 283
f 268 283 269
f 269 283 284
f 269 284 270
f 270 284 271
f 270 271 257
f 271 285 286
f 271 286 272
f 272 286 287
f 272 287 273
f 273 287 288
f 273 288 274
f 274 288 289
f 274 289 275
f 275 289 290
f 275 290 276
f 276 290 291
f 276 291 277
f 277 291 292
f 277 292 278
f 278 292 293
f 278 293 279
f 279 293 294
f 279 294 280
f 280 294 295
f 280 295 281
f 281 295 296
f 281 296 282
f 282 296 297
f 282 297 283
f 283 297 298
f 283 298 284
f 284 298 285
f 284 285 271
f 285 299 300
f 285 300 286
f 286 300 301
f 286 301 287
f 287 301 302
f 287 302 288
f 288 302 303
f 288 303 289
f 289 303 304
f 289 304 290
f 290 304 305
f 290 305 291
f 291 305 306
f 291 306 292
f 292 306 307
f 292 307 293
f 293 307 308
f 293 308 294
f 294 308 309
f 294 309 295
f 295 309 310
f 295 310 296
f 296 310 311
f 296 311 297
f 297 311 312
f 297 312 298
f 298 312 299
f 298 299 285
f 299 313 314
f 299 314 300
f 300 314 315
f 300 315 301
f 301 315 316
f 301 316 302
f 302 316 317
f 302 317 303
f 303 317 318
f 303 318 304
f 304 318 319
f 304 319 305
f 305 319 320
f 305 320 306
f 306 320 321
f 306 321 307
f 307 321 322
f 307 322 308
f 308 322 323
f 308 323 309
f 309 323 324
f 309 324 310
f 310 324 325
f 310 325 311
f 311 325 326
f 311 326 312
f 312 326 313
f 312 313 299
f 313 327 328
f 313 328 314
f 314 328 329
f 314 329 315
f 315 329 330
f 315 330 316
f 316 330 331
f 316 331 317
f 317 331 332
f 317 332 318
f 318 332 333
f 318 333 319
f 319 333 334
f 319 334 320
f 320 334 335
f 320 335 321
f 321 335 336
f 321 336 322
f 322 336 337
f 322 337 323
f 323 337 338
f 323 338 324
f 324 338 339
f 324 339 325
f 325 339 340
f 325 340 326
f 326 340 327
f 326 327 313
f 327 341 342
f 327 342 328
f 328 342 343
f 328 343 329
f 329 343 344
f 329 344 330
f 330 344 345
f 330 345 331
f 331 345 346
f 331 346 332
f 332 346 347
f 332 347 333
f 333 347 348
f 333 348 334
f 334 348 349
f 334 349 335
f 335 349 350
f 335 350 336
f 336 350 351
f 336 351 337
f 337 351 352
f 337 352 338
f 338 352 353
f 338 353 339
f 339 353 354
f 339 354 340
f 340 354 341
f 340 341 327
f 341 355 356
f 341 356 342
f 342 356 357
f 342 357 343
f 343 357 358
f 343 358 344
f 344 358 359
f 344 359 345
f 345 359 360
f 345 360 346
f 346 360 361
f 346 361 347
f 347 361 362
f 347 362 348
f 348 362 363
f 348 363 349
f 349 363 364
f 349 364 350
f 350 364 365
f 350 365 351
f 351 365 366
f 351 366 352
f 352 366 367
f 352 367 353
f 353 367 368
f 353 368 354
f 354 368 355
f 354 355 341
f 355 369 370
f 355 370 356
f 356 370 371
f 356 371 357
f 357 371 372
f 357 372 358
f 358 372 373
f 358 373 359
f 359 373 374
f 359 374 360
f 360 374 375
f 360 375 361
f 361 375 376
f 361 376 362
f 362 376 377
f 362 377 363
f 363 377 378
f 363 378 364
f 364 378 379
f 364 379 365
f 365 379 380
f 365 380 366
f 366 380 381
f 366 381 367
f 367 381 382
f 367 382 368
f 368 382 369
f 368 369 355
f 369 383 384
f 369 384 370
f 370 384 385
f 370 385 371
f 371 385 386
f 371 386 372
f 372 386 387
f 372 387 373
f 373 387 388
f 373 388 374
f 374 388 389
f 374 389 375
f 375 389 390
f 375 390 376
f 376 390 391
f 376 391 377
f 377 391 392
f 377 392 378
f 378 392 393
f 378 393 379
f 379 393 394
f 379 394 380
f 380 394 395
f 380 395 381
f 381 395 396
f 381 396 382
f 382 396 383
f 382 383 369
f 383 397 398
f 383 398 384
f 384 398 399
f 384 399 385
f 385 399 400
f 385 400 386
f 386 400 401
f 386 401 387
f 387 401 402
f 387 402 388
f 388 402 403
f 388 403 389
f 389 403 404
f 389 404 390
f 390 404 405
f 390 405 391
f 391 405 406
f 391 406 392
f 392 406 407
f 392 407 393
f 393 407 408
f 393 408 394
f 394 408 409
f 394 409 395
f 395 409 410
f 395 410 396
f 396 410 397
f 396 397 383
f 397 411 412
f 397 412 398
f 398 412 413
f 398 413 399
f 399 413 414
f 399 414 400
f 400 414 415
f 400 415 401
f 401 415 416
f 401 416 402
f 402 416 417
f 402 417 403
f 403 417 418
f 403 418 404
f 404 418 419
f 404 419 405
f 405 419 420
f 405 420 406
f 406 420 421
f 406 421 407
f 407 421 422
f 407 422 408
f 408 422 423
f 408 423 409
f 409 423 424
f 409 424 410
f 410 424 411
f 410 411 397
f 411 425 426
f 411 426 412
f 412 426 427
f 412 427 413
f 413 427 428
f 413 428 414
f 414 428 429
f 414 429 415
f 415 429 430
f 415 430 416
f 416 430 431
f 416 431 417
f 417 431 432
f 417 432 418
f 418 432 433
f 418 433 419
f 419 433 434
f 419 434 420
f 420 434 435
f 420 435 421
f 421 435 436
f 421 436 422
f 422 436 437
f 422 437 423
f 423 437 438
f 423 438 424
f 424 438 425
f 424 425 411
f 425 439 440
f 425 440 426
f 426 440 441
f 426 441 427
f 427 441 442
f 427 442 428
f 428 442 443
f 428 443 429
f 429 443 444
f 429 444 430
f 430 444 445
f 430 445 431
f 431 445 446
f 431 446 432
f 432 446 447
f 432 447 433
f 433 447 448
f 433 448 434
f 434 448 449
f 434 449 435
f 435 449 450
f 435 450 436
f 436 450 451
f 436 451 437
f 437 451 452
f 437 452 438
f 438 452 439
f 438 439 425
f 439 453 454
f 439 454 440
f 440 454 455
f 440 455 441
f 441 455 456
f 441 456 442
f 442 456 457
f 442 457 443
f 443 457 458
f 443 458 444
f 444 458 459
f 444 459 445
f 445 459 460
f 445 460 446
f 446 460 461
f 446 461 447
f 447 461 462
f 447 462 448
f 448 462 463
f 448 463 449
f 449 463 464
f 449 464 450
f 450 464 465
f 450 465 451
f 451 465 466
f 451 466 452
f 452 466 453
f 452 453 439
f 453 467 468
f 453 468 454
f 454 468 469
f 454 469 455
f 455 469 470
f 455 470 456
f 456 470 471
f 456 471 457
f 457 471 472
f 457 472 458
f 458 472 473
f 458 473 459
f 459 473 474
f 459 474 460
f 460 474 475
f 460 475 461
f 461 475 476
f 461 476 462
f 462 476 477
f 462 477 463
f 463 477 478
f 463 478 464
f 464 478 479
f 464 479 465
f 465 479 480
f 465 480 466
f 466 480 467
f 466 467 453
f 467 481 482
f 467 482 468
f 468 482 483
f 468 483 469
f 469 483 484
f 469 484 470
f 470 484 485
f 470 485 471
f 471 485 486
f 471 486 472
f 472 486 487
f 472 487 473
f 473 487 488
f 473 488 474
f 474 488 489
f 474 489 475
f 475 489 490
f 475 490 476
f 476 490 491
f 476 491 477
f 477 491 492
f 477 492 478
f 478 492 493
f 478 493 479
f 479 493 494
f 479 494 480
f 480 494 481
f 480 481 467
f 481 495 496
f 481 496 482
f 482 496 497
f 482 497 483
f 483 497 498
f 483 498 484
f 484 498 499
f 484 499 485
f 485 499 500
f 485 500 486
f 486 500 501
f 486 501 487
f 487 501 502
f 487 502 488
f 488 502 503
f 488 503 489
f 489 503 504
f 489 504 490
f 490 504 505
f 490 505 491
f 491 505 506
f 491 506 492
f 492 506 507
f 492 507 493
f 493 507 508
f 493 508 494
f 494 508 495
f 494 495 481
f 495 509 510
f 495 510 496
f 496 510 511
f 496 511 497
f 497 511 512
f 497 512 498
f 498 512 513
f 498 513 499
f 499 513 514
f 499 514 500
f 500 514 515
f 500 515 501
f 501 515 516
f 501 516 502
f 502 516 517
f 502 517 503
f 503 517 518
f 503 518 504
f 504 518 519
f 504 519 505
f 505 519 520
f 505 520 506
f 506 520 521
f 506 521 507
f 507 521 522
f 507 522 508
f 508 522 509
f 508 509 495
f 509 523 524
f 509 524 510
f 510 524 525
f 510 525 511
f 511 525 526
f 511 526 512
f 512 526 527
f 512 527 513
f 513 527 528
f 513 528 514
f 514 528 529
f 514 529 515
f 515 529 530
f 515 530 516
f 516 530 531
f 516 531 517
f 517 531 532
f 517 532 518
f 518 532 533
f 518 533 519
f 519 533 534
f 519 534 520
f 520 534 535
f 520 535 521
f 521 535 536
f 521 536 522
f 522 536 523
f 522 523 509
f 523 537 538
f 523 538 524
f 524 538 539
f 524 539 525
f 525 539 540
f 525 540 526
f 526 540 541
f 526 541 527
f 527 541 542
f 527 542 528
f 528 542 543
f 528 543 529
f 529 543 544
f 529 544 530
f 530 544 545
f 530 545 531
f 531 545 546
f 531 546 532
f 532 546 547
f 532 547 533
f 533 547 548
f 533 548 534
f 534 548 549
f 534 549 535
f 535 549 550
f 535 550 536
f 536 550 537
f 536 537 523
f 537 551 552
f 537 552 538
f 538 552 553
f 538 553 539
f 539 553 554
f 539 554 540
f 540 554 555
f 540 555 541
f 541 555 556
f 541 556 542
f 542 556 557
f 542 557 543
f 543 557 558
f 543 558 544
f 544 558 559
f 544 559 545
f 545 559 560
f 545 560 546
f 546 560 561
f 546 561 547
f 547 561 562
f 547 562 548
f 548 562 563
f 548 563 549
f 549 563 564
f 549 564 550
f 550 564 551
f 550 551 537
f 551 565 566
f 551 566 552
f 552 566 567
f 552 567 553
f 553 567 568
f 553 568 554
f 554 568 569
f 554 569 555
f 555 569 570
f 555 570 556
f 556 570 571
f 556 571 557
f 557 571 572
f 557 572 558
f 558 572 573
f 558 573 559
f 559 573 574
f 559 574 560
f 560 574 575
f 560 575 561
f 561 575 576
f 561 576 562
f 562 576 577
f 562 577 563
f 563 577 578
f 563 578 564
f 564 578 565
f 564 565 551
f 565 579 580
f 565 580 566
f 566 580 581
f 566 581 567
f 567 581 582
f 567 582 568
f 568 582 583
f 568 583 569
f 569 583 584
f 569 584 570
f 570 584 585
f 570 585 571
f 571 585 586
f 571 586 572
f 572 586 587
f 572 587 573
f 573 587 588
f 573 588 574
f 574 588 589
f 574 589 575
f 575 589 590
f 575 590 576
f 576 590 591
f 576 591 577
f 577 591 592
f 577 592 578
f 578 592 579
f 578 579 565
f 579 593 594
f 579 594 580
f 580 594 595
f 580 595 581
f 581 595 596
f 581 596 582
f 582 596 597
f 582 597 583
f 583 597 598
f 583 598 584
f 584 598 599
f 584 599 585
f 585 599 600
f 585 600 586
f 586 600 601
f 586 601 587
f 587 601 602
f 587 602 588
f 588 602 603
f 588 603 589
f 589 603 604
f 589 604 590
f 590 604 605
f 590 605 591
f 591 605 606
f 591 606 592
f 592 606 593
f 592 593 579
f 593 607 608
f 593 608 594
f 594 608 609
f 594 609 595
f 595 609 610
f 595 610 596
f 596 610 611
f 596 611 597
f 597 611 612
f 597 612 598
f 598 612 613
f 598 613 599
f 599 613 614
f 599 614 600
f 600 614 615
f 600 615 601
f 601 615 616
f 601 616 602
f 602 616 617
f 602 617 603
f 603 617 618
f 603 618 604
f 604 618 619
f 604 619 605
f 605 619 620
f 605 620 606
f 606 620 607
f 606 607 593
f 607 621 622
f 607 622 608
f 608 622 623
f 608 623 609
f 609 623 624
f 609 624 610
f 610 624 625
f 610 625 611
f 611 625 626
f 611 626 612
f 612 626 627
f 612 627 613
f 613 627 628
f 613 628 614
f 614 628 629
f 614 629 615
f 615 629 630
f 615 630 616
f 616 630 631
f 616 631 617
f 617 631 632
f 617 632 618
f 618 632 633
f 618 633 619
f 619 633 634
f 619 634 620
f 620 634 621
f 620 621 607
f 621 635 636
f 621 636 622
f 622 636 637
f 622 637 623
f 623 637 638
f 623 638 624
f 624 638 639
f 624 639 625
f 625 639 640
f 625 640 626
f 626 640 641
f 626 641 627
f 627 641 642
f 627 642 628
f 628 642 643
f 628 643 629
f 629 643 644
f 629 644 630
f 630 644 645
f 630 645 631
f 631 645 646
f 631 646 632
f 632 646 647
f 632 647 633
f 633 647 648
f 633 648 634
f 634 648 635
f 634 635 621
f 635 649 650
f 635 650 636
f 636 650 651
f 636 651 637
f 637 651 652
f 637 652 638
f 638 652 653
f 638 653 639
f 639 653 654
f 639 654 640
f 640 654 655
f 640 655 641
f 641 655 656
f 641 656 642
f 642 656 657
f 642 657 643
f 643 657 658
f 643 658 644
f 644 658 659
f 644 659 645
f 645 659 660
f 645 660 646
f 646 660 661
f 646 661 647
f 647 661 662
f 647 662 648
f 648 662 649
f 648 649 635
f 649 663 664
f 649 664 650
f 650 664 665
f 650 665 651
f 651 665 666
f 651 666 652
f 652 666 667
f 652 667 653
f 653 667 668
f 653 668 654
f 654 668 669
f 654 669 655
f 655 669 670
f 655 670 656
f 656 670 671
f 656 671 657
f 657 671 672
f 657 672 658
f 658 672 673
f 658 673 659
f 659 673 674
f 659 674 660
f 660 674 675
f 660 675 661
f 661 675 676
f 661 676 662
f 662 676 663
f 662 663 649
f 663 677 678
f 663 678 664
f 664 678 679
f 664 679 665
f 665 679 680
f 665 680 666
f 666 680 681
f 666 681 667
f 667 681 682
f 667 682 668
f 668 682 683
f 668 683 669
f 669 683 684
f 669 684 670
f 670 684 685
f 670 685 671
f 671 685 686
f 671 686 672
f 672 686 687
f 672 687 673
f 673 687 688
f 673 688 674
f 674 688 689
f 674 689 675
f 675 689 690
f 675 690 676
f 676 690 677
f 676 677 663
f 677 691 692
f 677 692 678
f 678 692 693
f 678 693 679
f 679 693 694
f 679 694 680
f 680 694 695
f 680 695 681
f 681 695 696
f 681 696 682
f 682 696 697
f 682 697 683
f 683 697 698
f 683 698 684
f 684 698 699
f 684 699 685
f 685 699 700
f 685 700 686
f 686 700 701
f 686 701 687
f 687 701 702
f 687 702 688
f 688 702 703
f 688 703 689
f 689 703 704
f 689 704 690
f 690 704 691
f 690 691 677
f 691 705 706
f 691 706 692
f 692 706 707
f 692 707 693
f 693 707 708
f 693 708 694
f 694 708 709
f 694 709 695
f 695 709 710
f 695 710 696
f 696 710 711
f 696 711 697
f 697 711 712
f 697 712 698
f 698 712 713
f 698 713 699
f 699 713 714
f 699 714 700
f 700 714 715
f 700 715 701
f 701 715 716
f 701 716 702
f 702 716 717
f 702 717 703
f 703 717 718
f 703 718 704
f 704 718 705
f 704 705 691
f 705 719 720
f 705 720 706
f 706 720 721
f 706 721 707
f 707 721 722
f 707 722 708
f 708 722 723
f 708 723 709
f 709 723 724
f 709 724 710
f 710 724 725
f 710 725 711
f 711 725 726
f 711 726 712
f 712 726 727
f 712 727 713
f 713 727 728
f 713 728 714
f 714 728 729
f 714 729 715
f 715 729 730
f 715 730 716
f 716 730 731
f 716 731 717
f 717 731 732
f 717 732 718
f 718 732 719
f 718 719 705
f 719 733 734
f 719 734 720
f 720 734 735
f 720 735 721
f 721 735 736
f 721 736 722
f 722 736 737
f 722 737 723
f 723 737 738
f 723 738 724
f 724 738 739
f 724 739 725
f 725 739 740
f 725 740 726
f 726 740 741
f 726 741 727
f 727 741 742
f 727 742 728
f 728 742 743
f 728 743 729
f 729 743 744
f 729 744 730
f 730 744 745
f 730 745 731
f 731 745 746
f 731 746 732
f 732 746 733
f 732 733 719
f 733 243 244
f 733 244 734
f 734 244 245
f 734 245 735
f 735 245 246
f 735 246 736
f 736 246 247
f 736 247 737
f 737 247 248
f 737 248 738
f 738 248 249
f 738 249 739
f 739 249 250
f 739 250 740
f 740 250 251
f 740 251 741
f 741 251 252
f 741 252 742
f 742 252 253
f 742 253 743
f 743 253 254
f 743 254 744
f 744 254 255
f 744 255 745
f 745 255 256
f 745 256 746
f 746 256 243
f 746 243 733
o llanta
f 747 748 750
f 747 750 749
f 749 750 752
f 749 752 751
f 751 752 754
f 751 754 753
f 753 754 756
f 753 756 755
f 755 756 758
f 755 758 757
f 757 758 760
f 757 760 759
f 759 760 762
f 759 762 761
f 761 762 764
f 761 764 763
f 763 764 766
f 763 766 765
f 765 766 768
f 765 768 767
f 767 768 770
f 767 770 769
f 769 770 772
f 769 772 771
f 771 772 774
f 771 774 773
f 773 774 776
f 773 776 775
f 775 776 778
f 775 778 777
f 777 778 780
f 777 780 779
f 779 780 782
f 779 782 781
f 781 782 784
f 781 784 783
f 783 784 786
f 783 786 785
f 785 786 788
f 785 788 787
f 787 788 790
f 787 790 789
f 789 790 792
f 789 792 791
f 791 792 794
f 791 794 793
f 793 794 796
f 793 796 795
f 795 796 798
f 795 798 797
f 797 798 800
f 797 800 799
f 799 800 802
f 799 802 801
f 801 802 748
f 801 748 747
f 803 749 747
f 804 748 750
f 803 751 749
f 804 750 752
f 803 753 751
f 804 752 754
f 803 755 753
f 804 754 756
f 803 757 755
f 804 756 758
f 803 759 757
f 804 758 760
f 803 761 759
f 804 760 762
f 803 763 761
f 804 762 764
f 803 765 763
f 804 764 766
f 803 767 765
f 804 766 768
f 803 769 767
f 804 768 770
f 803 771 769
f 804 770 772
f 803 773 771
f 804 772 774
f 803 775 773
f 804 774 776
f 803 777 775
f 804 776 778
f 803 779 777
f 804 778 780
f 803 781 779
f 804 780 782
f 803 783 781
f 804 782 784
f 803 785 783
f 804 784 786
f 803 787 785
f 804 786 788
f 803 789 787
f 804 788 790
f 803 791 789
f 804 790 792
f 803 793 791
f 804 792 794
f 803 795 793
f 804 794 796
f 803 797 795
f 804 796 798
f 803 799 797
f 804 798 800
f 803 801 799
f 804 800 802
f 803 747 801
f 804 802 748
