o acc_0
v 1577.885 -868.968 0.000
v 1577.586 -868.834 60.000
v 1577.885 -868.968 60.000
f 1 2 3
v 1577.586 -868.834 0.000
f 1 4 2
v 1578.176 -869.118 0.000
v 1578.176 -869.118 60.000
f 5 3 6
f 5 1 3
v 1578.460 -869.281 0.000
v 1578.460 -869.281 60.000
f 7 6 8
f 7 5 6
v 1578.735 -869.458 0.000
v 1578.735 -869.458 60.000
f 9 8 10
f 9 7 8
v 1579.001 -869.649 0.000
v 1579.001 -869.649 60.000
f 11 10 12
f 11 9 10
v 1579.257 -869.853 0.000
f 13 11 12
v 1579.257 -869.853 60.000
f 13 12 14
v 1579.503 -870.069 0.000
f 15 13 14
v 1579.503 -870.069 60.000
f 15 14 16
v 1579.737 -870.297 0.000
f 17 15 16
v 1579.737 -870.297 60.000
f 17 16 18
v 1579.961 -870.537 0.000
f 19 17 18
v 1579.961 -870.537 60.000
f 19 18 20
v 1580.172 -870.787 0.000
f 21 19 20
v 1580.172 -870.787 60.000
f 21 20 22
v 1580.370 -871.047 0.000
f 23 21 22
v 1580.370 -871.047 60.000
f 23 22 24
v 1580.555 -871.317 0.000
f 25 23 24
v 1580.555 -871.317 60.000
f 25 24 26
v 1580.727 -871.596 0.000
f 27 25 26
v 1580.727 -871.596 60.000
f 27 26 28
v 1580.884 -871.883 0.000
f 29 27 28
v 1580.884 -871.883 60.000
f 29 28 30
v 1581.028 -872.177 0.000
f 31 29 30
v 1581.028 -872.177 60.000
f 31 30 32
v 1581.156 -872.478 0.000
f 33 31 32
v 1581.156 -872.478 60.000
f 33 32 34
v 1581.269 -872.785 0.000
f 35 33 34
v 1581.269 -872.785 60.000
f 35 34 36
v 1581.367 -873.097 0.000
f 37 35 36
v 1581.367 -873.097 60.000
f 37 36 38
v 1581.450 -873.414 0.000
v 1581.450 -873.414 60.000
f 39 38 40
f 39 37 38
v 1581.516 -873.734 0.000
v 1581.516 -873.734 60.000
f 41 40 42
f 41 39 40
v 1581.567 -874.058 0.000
v 1581.567 -874.058 60.000
f 43 42 44
f 43 41 42
v 1581.602 -874.383 0.000
v 1581.602 -874.383 60.000
f 45 44 46
f 45 43 44
v 1581.620 -874.710 0.000
v 1581.620 -874.710 60.000
f 47 46 48
f 47 45 46
v 1581.622 -875.037 0.000
v 1581.622 -875.037 60.000
f 49 48 50
f 49 47 48
v 1581.608 -875.364 0.000
v 1581.608 -875.364 60.000
f 51 50 52
f 51 49 50
v 1581.578 -875.690 0.000
v 1581.578 -875.690 60.000
f 53 52 54
f 53 51 52
v 1581.532 -876.014 0.000
v 1581.532 -876.014 60.000
f 55 54 56
f 55 53 54
v 1581.469 -876.336 0.000
v 1581.469 -876.336 60.000
f 57 56 58
f 57 55 56
v 1581.391 -876.654 0.000
v 1581.391 -876.654 60.000
f 59 58 60
f 59 57 58
v 1581.297 -876.967 0.000
v 1581.297 -876.967 60.000
f 61 60 62
f 61 59 60
v 1581.188 -877.276 0.000
f 63 61 62
v 1581.188 -877.276 60.000
f 63 62 64
v 1581.063 -877.578 0.000
f 65 63 64
v 1581.063 -877.578 60.000
f 65 64 66
v 1580.924 -877.875 0.000
f 67 65 66
v 1580.924 -877.875 60.000
f 67 66 68
v 1580.770 -878.164 0.000
f 69 67 68
v 1580.770 -878.164 60.000
f 69 68 70
v 1580.602 -878.444 0.000
f 71 69 70
v 1580.602 -878.444 60.000
f 71 70 72
v 1580.421 -878.717 0.000
f 73 71 72
v 1580.421 -878.717 60.000
f 73 72 74
v 1580.226 -878.980 0.000
f 75 73 74
v 1580.226 -878.980 60.000
f 75 74 76
v 1580.018 -879.233 0.000
f 77 75 76
v 1580.018 -879.233 60.000
f 77 76 78
v 1579.798 -879.475 0.000
v 1579.798 -879.475 60.000
f 79 78 80
f 79 77 78
v 1579.566 -879.706 0.000
v 1579.566 -879.706 60.000
f 81 80 82
f 81 79 80
v 1579.323 -879.926 0.000
v 1579.323 -879.926 60.000
f 83 82 84
f 83 81 82
v 1579.070 -880.133 0.000
v 1579.070 -880.133 60.000
f 85 84 86
f 85 83 84
v 1578.807 -880.327 0.000
v 1578.807 -880.327 60.000
f 87 86 88
f 87 85 86
v 1578.534 -880.508 0.000
v 1578.534 -880.508 60.000
f 89 88 90
f 89 87 88
v 1578.252 -880.675 0.000
v 1578.252 -880.675 60.000
f 91 90 92
f 91 89 90
v 1577.963 -880.828 0.000
v 1577.963 -880.828 60.000
f 93 92 94
f 93 91 92
v 1577.667 -880.967 0.000
v 1577.667 -880.967 60.000
f 95 94 96
f 95 93 94
v 1577.364 -881.090 0.000
v 1577.364 -881.090 60.000
f 97 96 98
f 97 95 96
v 1577.055 -881.199 0.000
v 1577.055 -881.199 60.000
f 99 98 100
f 99 97 98
v 1576.741 -881.292 0.000
v 1576.741 -881.292 60.000
f 101 100 102
f 101 99 100
v 1576.423 -881.370 0.000
v 1576.423 -881.370 60.000
f 103 102 104
f 103 101 102
v 1576.102 -881.431 0.000
v 1576.102 -881.431 60.000
f 105 104 106
f 105 103 104
v 1575.777 -881.477 0.000
v 1575.777 -881.477 60.000
f 107 106 108
f 107 105 106
v 1575.451 -881.506 0.000
v 1575.451 -881.506 60.000
f 109 108 110
f 109 107 108
v 1575.124 -881.519 0.000
v 1575.124 -881.519 60.000
f 111 110 112
f 111 109 110
v 1574.797 -881.516 0.000
f 113 111 112
v 1574.797 -881.516 60.000
f 113 112 114
v 1574.470 -881.497 0.000
f 115 113 114
v 1574.470 -881.497 60.000
f 115 114 116
v 1574.145 -881.462 0.000
f 117 115 116
v 1574.145 -881.462 60.000
f 117 116 118
v 1573.822 -881.410 0.000
v 1573.822 -881.410 60.000
f 119 118 120
f 119 117 118
v 1573.501 -881.343 0.000
v 1573.501 -881.343 60.000
f 121 120 122
f 121 119 120
v 1573.185 -881.260 0.000
v 1573.185 -881.260 60.000
f 123 122 124
f 123 121 122
v 1572.873 -881.161 0.000
v 1572.873 -881.161 60.000
f 125 124 126
f 125 123 124
v 1572.566 -881.047 0.000
v 1572.566 -881.047 60.000
f 127 126 128
f 127 125 126
v 1572.265 -880.918 0.000
v 1572.265 -880.918 60.000
f 129 128 130
f 129 127 128
v 1571.971 -880.774 0.000
v 1571.971 -880.774 60.000
f 131 130 132
f 131 129 130
v 1571.685 -880.615 0.000
v 1571.685 -880.615 60.000
f 133 132 134
f 133 131 132
v 1571.406 -880.443 0.000
v 1571.406 -880.443 60.000
f 135 134 136
f 135 133 134
v 1571.137 -880.257 0.000
v 1571.137 -880.257 60.000
f 137 136 138
f 137 135 136
v 1570.877 -880.058 0.000
v 1570.877 -880.058 60.000
f 139 138 140
f 139 137 138
v 1570.628 -879.847 0.000
v 1570.628 -879.847 60.000
f 141 140 142
f 141 139 140
v 1570.389 -879.623 0.000
v 1570.389 -879.623 60.000
f 143 142 144
f 143 141 142
v 1570.161 -879.387 0.000
v 1570.161 -879.387 60.000
f 145 144 146
f 145 143 144
v 1569.946 -879.141 0.000
v 1569.946 -879.141 60.000
f 147 146 148
f 147 145 146
v 1569.743 -878.884 0.000
v 1569.743 -878.884 60.000
f 149 148 150
f 149 147 148
v 1569.552 -878.618 0.000
v 1569.552 -878.618 60.000
f 151 150 152
f 151 149 150
v 1569.376 -878.342 0.000
f 153 151 152
v 1569.376 -878.342 60.000
f 153 152 154
v 1569.213 -878.059 0.000
f 155 153 154
v 1569.213 -878.059 60.000
f 155 154 156
v 1569.064 -877.767 0.000
f 157 155 156
v 1569.064 -877.767 60.000
f 157 156 158
v 1568.931 -877.468 0.000
f 159 157 158
v 1568.931 -877.468 60.000
f 159 158 160
v 1568.812 -877.163 0.000
v 1568.812 -877.163 60.000
f 161 160 162
f 161 159 160
v 1568.708 -876.853 0.000
f 163 161 162
v 1568.708 -876.853 60.000
f 163 162 164
v 1568.620 -876.538 0.000
f 165 163 164
v 1568.620 -876.538 60.000
f 165 164 166
v 1568.547 -876.218 0.000
f 167 165 166
v 1568.547 -876.218 60.000
f 167 166 168
v 1568.491 -875.896 0.000
f 169 167 168
v 1568.491 -875.896 60.000
f 169 168 170
v 1568.450 -875.571 0.000
f 171 169 170
v 1568.450 -875.571 60.000
f 171 170 172
v 1568.426 -875.245 0.000
f 173 171 172
v 1568.426 -875.245 60.000
f 173 172 174
v 1568.418 -874.917 0.025
f 175 173 174
v 1568.418 -874.917 60.000
f 175 174 176
v 1568.426 -874.602 0.000
v 1568.418 -874.917 0.025
v 1568.418 -874.917 60.000
f 177 178 179
v 1568.426 -874.602 60.000
f 177 179 180
v 1568.448 -874.288 0.000
v 1568.448 -874.288 60.000
f 181 180 182
f 181 177 180
v 1568.486 -873.975 0.000
v 1568.486 -873.975 60.000
f 183 182 184
f 183 181 182
v 1568.538 -873.665 0.000
v 1568.538 -873.665 60.000
f 185 184 186
f 185 183 184
v 1568.605 -873.357 0.000
v 1568.605 -873.357 60.000
f 187 186 188
f 187 185 186
v 1568.687 -873.052 0.000
v 1568.687 -873.052 60.000
f 189 188 190
f 189 187 188
v 1568.783 -872.752 0.000
v 1568.783 -872.752 60.000
f 191 190 192
f 191 189 190
v 1568.894 -872.457 0.000
v 1568.894 -872.457 60.000
f 193 192 194
f 193 191 192
v 1569.018 -872.168 0.000
v 1569.018 -872.168 60.000
f 195 194 196
f 195 193 194
v 1569.156 -871.884 0.000
v 1569.156 -871.884 60.000
f 197 196 198
f 197 195 196
v 1569.307 -871.608 0.000
v 1569.307 -871.608 60.000
f 199 198 200
f 199 197 198
v 1569.472 -871.339 0.000
v 1569.472 -871.339 60.000
f 201 200 202
f 201 199 200
v 1569.649 -871.079 0.000
v 1569.649 -871.079 60.000
f 203 202 204
f 203 201 202
v 1569.838 -870.827 0.000
v 1569.838 -870.827 60.000
f 205 204 206
f 205 203 204
v 1570.039 -870.584 0.000
f 207 205 206
v 1570.039 -870.584 60.000
f 207 206 208
v 1570.252 -870.351 0.000
v 1570.252 -870.351 60.000
f 209 208 210
f 209 207 208
v 1570.475 -870.129 0.000
f 211 209 210
v 1570.475 -870.129 60.000
f 211 210 212
v 1570.708 -869.917 0.000
v 1570.708 -869.917 60.000
f 213 212 214
f 213 211 212
o acc_1
v 2642.916 1556.582 259.642
v 2642.916 1616.582 259.642
v 2645.916 1616.582 259.642
f 215 216 217
v 2645.916 1556.582 259.642
f 215 217 218
v 2642.916 1556.582 306.642
v 2642.916 1616.582 306.642
f 219 220 216
f 219 216 215
v 2343.916 1556.582 306.642
v 2343.916 1616.582 306.642
f 221 222 220
f 221 220 219
v 2343.916 1556.582 259.642
f 222 221 223
v 2343.916 1616.582 259.642
f 222 223 224
v 2340.916 1556.582 259.642
v 2340.916 1616.582 259.642
f 225 226 224
f 225 224 223
v 2340.916 1616.582 309.642
f 225 227 226
v 2340.916 1556.582 309.642
f 228 227 225
v 2645.916 1556.582 309.642
v 2645.916 1616.582 309.642
f 228 229 230
f 227 228 230
f 217 229 218
f 230 229 217
f 222 224 226
f 227 222 226
f 220 217 216
f 230 220 222
f 230 222 227
f 230 217 220
f 223 221 225
f 221 228 225
f 218 219 215
f 219 229 221
f 221 229 228
f 218 229 219
o main_0
o main_1
o main_10
o main_11
v 22957.116 13661.889 -4064.000
v 22960.666 13662.594 -4063.525
v 22993.110 13663.171 -4063.134
f 231 232 233
v 22964.241 13663.171 -4063.134
f 233 232 234
v 22967.835 13663.622 -4062.828
f 233 234 235
v 22989.516 13663.622 -4062.828
f 233 235 236
v 22971.443 13663.944 -4062.608
f 236 235 237
v 22985.908 13663.944 -4062.608
f 236 237 238
v 22975.058 13664.138 -4062.476
f 238 237 239
v 22982.293 13664.138 -4062.476
f 238 239 240
v 22978.675 13664.203 -4062.431
f 240 239 241
o main_12
v 261225.357 13664.129 -4062.482
v 261218.218 13664.149 -4062.468
v 261221.788 13664.202 -4062.432
f 242 243 244
v 261214.651 13663.971 -4062.590
f 242 245 243
v 261228.924 13663.930 -4062.618
f 246 245 242
v 261211.090 13663.667 -4062.797
f 246 247 245
v 261232.484 13663.606 -4062.838
f 248 247 246
v 261207.541 13663.239 -4063.088
f 248 249 247
v 261236.029 13663.158 -4063.143
f 250 249 248
v 261204.011 13662.686 -4063.462
f 250 251 249
v 261239.557 13662.585 -4063.530
v 261201.971 13662.308 -4063.717
f 252 253 251
f 252 251 250
v 261221.500 13460.979 -4064.000
f 254 253 252
v 261199.940 13661.889 -4064.000
f 254 255 253
o main_13
o main_14
o main_15
o main_2
o main_3
o main_4
o main_5
o main_6
o main_7
v 40078.271 -22071.796 0.000
v 40070.693 -22068.376 1524.000
v 40078.271 -22071.796 1524.000
f 256 257 258
v 40070.693 -22068.376 0.000
f 256 259 257
v 40085.670 -22075.587 0.000
v 40085.670 -22075.587 1524.000
f 260 258 261
f 260 256 258
v 40092.872 -22079.739 0.000
v 40092.872 -22079.739 1524.000
f 262 261 263
f 262 260 261
v 40099.860 -22084.244 0.000
v 40099.860 -22084.244 1524.000
f 264 263 265
f 264 262 263
v 40106.616 -22089.090 0.000
v 40106.616 -22089.090 1524.000
f 266 265 267
f 266 264 265
v 40113.123 -22094.264 0.000
v 40113.123 -22094.264 1524.000
f 268 267 269
f 268 266 267
v 40119.366 -22099.754 0.000
f 270 268 269
v 40119.366 -22099.754 1524.000
f 270 269 271
v 40125.329 -22105.547 0.000
f 272 270 271
v 40125.329 -22105.547 1524.000
f 272 271 273
v 40130.998 -22111.629 0.000
f 274 272 273
v 40130.998 -22111.629 1524.000
f 274 273 275
v 40136.359 -22117.984 0.000
f 276 274 275
v 40136.359 -22117.984 1524.000
f 276 275 277
v 40141.397 -22124.596 0.000
f 278 276 277
v 40141.397 -22124.596 1524.000
f 278 277 279
v 40146.102 -22131.451 0.000
f 280 278 279
v 40146.102 -22131.451 1524.000
f 280 279 281
v 40150.462 -22138.530 0.000
f 282 280 281
v 40150.462 -22138.530 1524.000
f 282 281 283
v 40154.465 -22145.816 0.000
f 284 282 283
v 40154.465 -22145.816 1524.000
f 284 283 285
v 40158.103 -22153.292 0.000
f 286 284 285
v 40158.103 -22153.292 1524.000
f 286 285 287
v 40161.365 -22160.939 0.000
f 288 286 287
v 40161.365 -22160.939 1524.000
f 288 287 289
v 40164.244 -22168.738 0.000
f 290 288 289
v 40164.244 -22168.738 1524.000
f 290 289 291
v 40166.734 -22176.671 0.000
f 292 290 291
v 40166.734 -22176.671 1524.000
f 292 291 293
v 40168.827 -22184.716 0.000
v 40168.827 -22184.716 1524.000
f 294 293 295
f 294 292 293
v 40170.519 -22192.856 0.000
v 40170.519 -22192.856 1524.000
f 296 295 297
f 296 294 295
v 40171.805 -22201.070 0.000
f 298 296 297
v 40171.805 -22201.070 1524.000
f 298 297 299
v 40172.683 -22209.337 0.000
v 40172.683 -22209.337 1524.000
f 300 299 301
f 300 298 299
v 40173.150 -22217.638 0.000
v 40173.150 -22217.638 1524.000
f 302 301 303
f 302 300 301
v 40173.205 -22225.951 0.000
v 40173.205 -22225.951 1524.000
f 304 303 305
f 304 302 303
v 40172.848 -22234.258 0.000
v 40172.848 -22234.258 1524.000
f 306 305 307
f 306 304 305
v 40172.080 -22242.536 0.000
v 40172.080 -22242.536 1524.000
f 308 307 309
f 308 306 307
v 40170.902 -22250.766 0.000
v 40170.902 -22250.766 1524.000
f 310 309 311
f 310 308 309
v 40169.318 -22258.927 0.000
v 40169.318 -22258.927 1524.000
f 312 311 313
f 312 310 311
v 40167.332 -22267.000 0.000
v 40167.332 -22267.000 1524.000
f 314 313 315
f 314 312 313
v 40164.948 -22274.965 0.000
v 40164.948 -22274.965 1524.000
f 316 315 317
f 316 314 315
v 40162.172 -22282.801 0.000
f 318 316 317
v 40162.172 -22282.801 1524.000
f 318 317 319
v 40159.011 -22290.491 0.000
f 320 318 319
v 40159.011 -22290.491 1524.000
f 320 319 321
v 40155.473 -22298.014 0.000
f 322 320 321
v 40155.473 -22298.014 1524.000
f 322 321 323
v 40151.566 -22305.353 0.000
f 324 322 323
v 40151.566 -22305.353 1524.000
f 324 323 325
v 40147.301 -22312.489 0.000
f 326 324 325
v 40147.301 -22312.489 1524.000
f 326 325 327
v 40142.687 -22319.405 0.000
f 328 326 327
v 40142.687 -22319.405 1524.000
f 328 327 329
v 40137.736 -22326.084 0.000
f 330 328 329
v 40137.736 -22326.084 1524.000
f 330 329 331
v 40132.460 -22332.509 0.000
f 332 330 331
v 40132.460 -22332.509 1524.000
f 332 331 333
v 40126.873 -22338.665 0.000
f 334 332 333
v 40126.873 -22338.665 1524.000
f 334 333 335
v 40120.987 -22344.537 0.000
f 336 334 335
v 40120.987 -22344.537 1524.000
f 336 335 337
v 40114.817 -22350.109 0.000
v 40114.817 -22350.109 1524.000
f 338 337 339
f 338 336 337
v 40108.379 -22355.369 0.000
v 40108.379 -22355.369 1524.000
f 340 339 341
f 340 338 339
v 40101.687 -22360.304 0.000
v 40101.687 -22360.304 1524.000
f 342 341 343
f 342 340 341
v 40094.760 -22364.901 0.000
v 40094.760 -22364.901 1524.000
f 344 343 345
f 344 342 343
v 40087.613 -22369.148 0.000
v 40087.613 -22369.148 1524.000
f 346 345 347
f 346 344 345
v 40080.265 -22373.037 0.000
v 40080.265 -22373.037 1524.000
f 348 347 349
f 348 346 347
v 40072.733 -22376.556 0.000
v 40072.733 -22376.556 1524.000
f 350 349 351
f 350 348 349
v 40065.036 -22379.698 0.000
v 40065.036 -22379.698 1524.000
f 352 351 353
f 352 350 351
v 40057.192 -22382.455 0.000
v 40057.192 -22382.455 1524.000
f 354 353 355
f 354 352 353
v 40049.222 -22384.819 0.000
v 40049.222 -22384.819 1524.000
f 356 355 357
f 356 354 355
v 40041.144 -22386.786 0.000
v 40041.144 -22386.786 1524.000
f 358 357 359
f 358 356 357
v 40032.979 -22388.349 0.000
v 40032.979 -22388.349 1524.000
f 360 359 361
f 360 358 359
v 40024.746 -22389.507 0.000
v 40024.746 -22389.507 1524.000
f 362 361 363
f 362 360 361
v 40016.466 -22390.255 0.000
v 40016.466 -22390.255 1524.000
f 364 363 365
f 364 362 363
v 40008.159 -22390.591 0.000
v 40008.159 -22390.591 1524.000
f 366 365 367
f 366 364 365
v 39999.845 -22390.516 0.000
f 368 366 367
v 39999.845 -22390.516 1524.000
f 368 367 369
v 39991.546 -22390.028 0.000
f 370 368 369
v 39991.546 -22390.028 1524.000
f 370 369 371
v 39983.281 -22389.130 0.000
f 372 370 371
v 39983.281 -22389.130 1524.000
f 372 371 373
v 39975.070 -22387.823 0.000
f 374 372 373
v 39975.070 -22387.823 1524.000
f 374 373 375
v 39966.935 -22386.111 0.000
v 39966.935 -22386.111 1524.000
f 376 375 377
f 376 374 375
v 39958.894 -22383.998 0.000
v 39958.894 -22383.998 1524.000
f 378 377 379
f 378 376 377
v 39950.968 -22381.490 0.000
v 39950.968 -22381.490 1524.000
f 380 379 381
f 380 378 379
v 39943.176 -22378.591 0.000
v 39943.176 -22378.591 1524.000
f 382 381 383
f 382 380 381
v 39935.537 -22375.310 0.000
v 39935.537 -22375.310 1524.000
f 384 383 385
f 384 382 383
v 39928.070 -22371.654 0.000
v 39928.070 -22371.654 1524.000
f 386 385 387
f 386 384 385
v 39920.793 -22367.633 0.000
v 39920.793 -22367.633 1524.000
f 388 387 389
f 388 386 387
v 39913.725 -22363.256 0.000
v 39913.725 -22363.256 1524.000
f 390 389 391
f 390 388 389
v 39906.882 -22358.534 0.000
v 39906.882 -22358.534 1524.000
f 392 391 393
f 392 390 391
v 39900.282 -22353.479 0.000
v 39900.282 -22353.479 1524.000
f 394 393 395
f 394 392 393
v 39893.940 -22348.103 0.000
v 39893.940 -22348.103 1524.000
f 396 395 397
f 396 394 395
v 39887.873 -22342.419 0.000
v 39887.873 -22342.419 1524.000
f 398 397 399
f 398 396 397
v 39882.095 -22336.441 0.000
v 39882.095 -22336.441 1524.000
f 400 399 401
f 400 398 399
v 39876.620 -22330.185 0.000
v 39876.620 -22330.185 1524.000
f 402 401 403
f 402 400 401
v 39871.461 -22323.665 0.000
v 39871.461 -22323.665 1524.000
f 404 403 405
f 404 402 403
v 39866.633 -22316.897 0.000
v 39866.633 -22316.897 1524.000
f 406 405 407
f 406 404 405
v 39862.145 -22309.899 0.000
f 408 406 407
v 39862.145 -22309.899 1524.000
f 408 407 409
v 39858.010 -22302.686 0.000
f 410 408 409
v 39858.010 -22302.686 1524.000
f 410 409 411
v 39854.238 -22295.277 0.000
f 412 410 411
v 39854.238 -22295.277 1524.000
f 412 411 413
v 39850.837 -22287.691 0.000
f 414 412 413
v 39850.837 -22287.691 1524.000
f 414 413 415
v 39847.816 -22279.945 0.000
v 39847.816 -22279.945 1524.000
f 416 415 417
f 416 414 415
v 39845.183 -22272.060 0.000
v 39845.183 -22272.060 1524.000
f 418 417 419
f 418 416 417
v 39842.944 -22264.053 0.000
f 420 418 419
v 39842.944 -22264.053 1524.000
f 420 419 421
v 39841.105 -22255.945 0.000
f 422 420 421
v 39841.105 -22255.945 1524.000
f 422 421 423
v 39839.669 -22247.756 0.000
f 424 422 423
v 39839.669 -22247.756 1524.000
f 424 423 425
v 39838.642 -22239.506 0.000
f 426 424 425
v 39838.642 -22239.506 1524.000
f 426 425 427
v 39838.024 -22231.216 0.000
f 428 426 427
v 39838.024 -22231.216 1524.000
f 428 427 429
v 39837.818 -22222.904 0.025
f 430 428 429
v 39837.818 -22222.904 1524.000
f 430 429 431
v 39838.009 -22214.903 0.000
v 39837.818 -22222.904 0.025
v 39837.818 -22222.904 1524.000
f 432 433 434
v 39838.009 -22214.903 1524.000
f 432 434 435
v 39838.581 -22206.920 0.000
v 39838.581 -22206.920 1524.000
f 436 435 437
f 436 432 435
v 39839.534 -22198.973 0.000
v 39839.534 -22198.973 1524.000
f 438 437 439
f 438 436 437
v 39840.865 -22191.080 0.000
v 39840.865 -22191.080 1524.000
f 440 439 441
f 440 438 439
v 39842.571 -22183.261 0.000
v 39842.571 -22183.261 1524.000
f 442 441 443
f 442 440 441
v 39844.648 -22175.531 0.000
v 39844.648 -22175.531 1524.000
f 444 443 445
f 444 442 443
v 39847.091 -22167.909 0.000
v 39847.091 -22167.909 1524.000
f 446 445 447
f 446 444 445
v 39849.896 -22160.413 0.000
v 39849.896 -22160.413 1524.000
f 448 447 449
f 448 446 447
v 39853.054 -22153.059 0.000
v 39853.054 -22153.059 1524.000
f 450 449 451
f 450 448 449
v 39856.560 -22145.864 0.000
v 39856.560 -22145.864 1524.000
f 452 451 453
f 452 450 451
v 39860.406 -22138.844 0.000
v 39860.406 -22138.844 1524.000
f 454 453 455
f 454 452 453
v 39864.582 -22132.016 0.000
v 39864.582 -22132.016 1524.000
f 456 455 457
f 456 454 455
v 39869.078 -22125.395 0.000
v 39869.078 -22125.395 1524.000
f 458 457 459
f 458 456 457
v 39873.886 -22118.996 0.000
v 39873.886 -22118.996 1524.000
f 460 459 461
f 460 458 459
v 39878.994 -22112.834 0.000
f 462 460 461
v 39878.994 -22112.834 1524.000
f 462 461 463
v 39884.389 -22106.922 0.000
v 39884.389 -22106.922 1524.000
f 464 463 465
f 464 462 463
v 39890.061 -22101.275 0.000
v 39890.061 -22101.275 1524.000
f 466 465 467
f 466 464 465
v 39895.995 -22095.904 0.000
v 39895.995 -22095.904 1524.000
f 468 467 469
f 468 466 467
o main_8
o main_9
